<?xml version="1.0" encoding="UTF-8"?>
<svg version="1.1" xmlns="http://www.w3.org/2000/svg" width="1024" height="1024">
<path d="M0 0 C337.92 0 675.84 0 1024 0 C1024 337.92 1024 675.84 1024 1024 C686.08 1024 348.16 1024 0 1024 C0 686.08 0 348.16 0 0 Z " fill="#181A1B" transform="translate(0,0)"/>
<path d="M0 0 C337.92 0 675.84 0 1024 0 C1024 337.92 1024 675.84 1024 1024 C686.08 1024 348.16 1024 0 1024 C0 686.08 0 348.16 0 0 Z M180 90 C179.3076123 90.29712891 178.61522461 90.59425781 177.90185547 90.90039062 C154.42159343 101.09477543 126.4986334 118.27445263 113 141 C113 141.66 113 142.32 113 143 C112.01 143.33 111.02 143.66 110 144 C108.34628946 146.05120794 106.88328303 148.05790626 105.4375 150.25 C105.00276367 150.90750244 104.56802734 151.56500488 104.12011719 152.24243164 C93.67344248 168.55268742 86.27618271 187.03051818 81.25 205.6875 C81.05108154 206.42307129 80.85216309 207.15864258 80.6472168 207.91650391 C72.72926895 238.80703059 74.6997528 272.32329755 74.72389162 303.93481112 C74.72638873 310.07803276 74.71730838 316.22124003 74.70985413 322.36445618 C74.69718878 334.35736574 74.69529734 346.35024754 74.69765439 358.34316064 C74.6994977 368.09954826 74.69770587 377.85592933 74.69342995 387.61231613 C74.69282751 389.02136584 74.69222631 390.43041555 74.69162634 391.83946525 C74.69071896 393.96353369 74.68981028 396.08760212 74.68889399 398.21167055 C74.68048467 417.91677229 74.67611498 437.62187159 74.68030071 457.32697487 C74.68045709 458.06729843 74.68061346 458.80762198 74.68077458 459.57037959 C74.68158019 463.32140233 74.68242596 467.07242505 74.68328788 470.82344778 C74.68345897 471.56822447 74.68363006 472.31300116 74.68380633 473.08034684 C74.68415299 474.58645706 74.68450152 476.09256728 74.68485192 477.5986775 C74.69021043 501.03975821 74.68226667 524.4808013 74.66381836 547.921875 C74.64304818 574.34322953 74.63238474 600.76456079 74.63639385 627.18592393 C74.63678911 630.00905442 74.63715067 632.83218491 74.63749123 635.6553154 C74.63758196 636.35028984 74.63767269 637.04526428 74.63776617 637.76129855 C74.63892601 648.19493671 74.63233133 658.62855114 74.62167931 669.06218338 C74.60956425 680.93995215 74.60841603 692.81766732 74.62046947 704.6954415 C74.62632245 710.74255048 74.6275577 716.78955838 74.61546707 722.83666039 C74.54521038 760.66099967 74.51782029 798.66622541 90 834 C90.32871094 834.75474609 90.65742187 835.50949219 90.99609375 836.28710938 C109.36756705 877.90892709 142.04388466 910.71723039 184.58203125 927.50244141 C201.14451965 933.82274948 217.32197145 937.81448126 234.875 940.25 C236.04369629 940.41346924 237.21239258 940.57693848 238.41650391 940.74536133 C256.37570119 943.04452116 274.52769576 943.15038301 292.60823059 943.13371277 C294.57947876 943.13558735 296.55072656 943.13789059 298.52197379 943.14057809 C303.86991598 943.14662267 309.21784238 943.1465713 314.5657872 943.14538372 C320.36090763 943.14517782 326.15602323 943.1507163 331.95114136 943.15544128 C343.27972528 943.16370817 354.60830401 943.16649433 365.9368907 943.16705366 C375.15709767 943.16753075 384.37730295 943.16959507 393.59750938 943.17275429 C396.26321004 943.17364891 398.92891069 943.17454182 401.59461135 943.17542917 C402.25754506 943.17565021 402.92047878 943.17587126 403.6035014 943.17609901 C422.22187508 943.18224339 440.84024819 943.18620058 459.45862293 943.18575573 C460.15892844 943.18574015 460.85923394 943.18572457 461.58076082 943.18570852 C465.12920698 943.18562543 468.67765313 943.18552639 472.22609929 943.18542381 C472.9306764 943.18540387 473.63525351 943.18538392 474.36118145 943.18536337 C475.78600582 943.18532294 477.21083019 943.18528114 478.63565456 943.18523798 C500.77981469 943.18462589 522.92395949 943.19212375 545.06811523 943.20581055 C570.019759 943.22122669 594.9713927 943.22977344 619.92304152 943.22884732 C633.1068668 943.22847878 646.29067552 943.23119598 659.47449684 943.24202538 C670.70269719 943.25119015 681.93087239 943.2532571 693.15907488 943.24651595 C698.87256037 943.2432805 704.5859978 943.24308441 710.29947853 943.2518692 C779.2430594 943.35112906 844.36081638 940.07876553 897 890 C897.68449219 889.37996094 898.36898437 888.75992188 899.07421875 888.12109375 C925.36379431 863.48495062 939.94365487 827.78378751 946 793 C946.21527344 791.81535156 946.43054688 790.63070312 946.65234375 789.41015625 C949.23203841 774.17677684 949.1483173 758.75677013 949.14044189 743.35643005 C949.14303128 741.30801544 949.14604602 739.25960133 949.1494453 737.2111879 C949.1574519 731.621842 949.15930131 726.03250898 949.16004276 720.44315803 C949.16190458 714.39832526 949.16945773 708.353499 949.17617798 702.30867004 C949.19042446 688.41713762 949.19628329 674.52560701 949.20086992 660.63406907 C949.20321384 653.7509332 949.20681745 646.86779816 949.2105653 639.98466294 C949.22339815 616.36672909 949.23411491 592.74879568 949.2375679 569.13085842 C949.23778953 567.6506233 949.23801131 566.17038818 949.23823325 564.69015307 C949.23845389 563.20657581 949.23867437 561.72299856 949.2388947 560.23942131 C949.23933722 557.26369949 949.23978435 554.28797768 949.24023438 551.31225586 C949.24034377 550.5744603 949.24045316 549.83666473 949.24056586 549.07651173 C949.24418873 525.20512315 949.26008097 501.33376509 949.28342474 477.46238818 C949.30812857 452.15332496 949.32174571 426.84427913 949.32293582 401.53520352 C949.32310724 398.74620219 949.32332265 395.95720086 949.32357025 393.16819954 C949.3236539 392.13829693 949.3236539 392.13829693 949.32373925 391.08758821 C949.32488089 380.12784407 949.33582689 369.16813168 949.35045731 358.20839819 C949.36496341 347.14873881 949.36773259 336.08911407 949.36001733 325.02944695 C949.3561545 319.06005438 949.35682157 313.09076662 949.37107468 307.12138748 C950.22550685 255.61098073 950.22550685 255.61098073 942 205 C941.78472656 204.21367187 941.56945312 203.42734375 941.34765625 202.6171875 C933.66398811 175.2685382 920.61457204 150.66150367 901 130 C900.5364209 129.50387207 900.0728418 129.00774414 899.59521484 128.49658203 C864.61635439 91.24770703 816.25560831 75.93311737 766.23139456 73.88674277 C759.82224127 73.71763744 753.41370987 73.73041603 747.00283813 73.74603271 C744.89303111 73.74372086 742.78322489 73.74053953 740.67342031 73.73657823 C734.94742405 73.72832088 729.22149547 73.73231369 723.49549913 73.73855066 C717.29222717 73.74311179 711.08896614 73.73607336 704.88569641 73.73059082 C693.45972193 73.72224394 682.03377721 73.72292124 670.60780291 73.72841376 C660.04729333 73.73346468 649.48679152 73.7347491 638.92628098 73.73236847 C637.87145986 73.73213931 637.87145986 73.73213931 636.79532923 73.73190553 C633.9400204 73.73128275 631.08471158 73.73064594 628.22940275 73.729986 C601.49636689 73.72388116 574.76334451 73.72939374 548.03031073 73.7401798 C524.33530409 73.74966745 500.64031895 73.74882196 476.9453125 73.73925781 C450.26108323 73.72852285 423.57686588 73.72431635 396.89263475 73.73048234 C394.04220669 73.73112367 391.19177862 73.73174936 388.34135056 73.73236847 C387.63961574 73.73252662 386.93788093 73.73268478 386.21488143 73.73284773 C375.66837332 73.73511229 365.12187388 73.73248156 354.57536697 73.72740936 C342.56888992 73.72166345 330.56244373 73.72336872 318.55596758 73.73397085 C312.44044132 73.73919466 306.32495846 73.74134107 300.2094326 73.73467255 C238.77369365 73.52917788 238.77369365 73.52917788 180 90 Z " fill="#090809" transform="translate(0,0)"/>
<path d="M0 0 C288.42 0 576.84 0 874 0 C874 86.22434612 874 86.22434612 870.75 104.4375 C870.52675049 105.69667236 870.30350098 106.95584473 870.07348633 108.25317383 C867.08250776 124.58948874 862.2481702 139.06788422 855 154 C854.67628418 154.66805664 854.35256836 155.33611328 854.01904297 156.02441406 C834.28009138 196.14456071 798.12373687 226.57327062 756 241 C723.2791394 251.64365954 689.62276275 253.17133573 655.43800354 253.12698364 C653.45977895 253.12813942 651.48155458 253.12972999 649.50333065 253.13171089 C644.13189073 253.13584149 638.76046884 253.13384224 633.38902891 253.13072467 C627.57092573 253.12844494 621.75282548 253.13196291 615.9347229 253.13470459 C604.56223337 253.13913398 593.18975047 253.13819842 581.81726069 253.13529195 C572.56785461 253.13302665 563.31845039 253.13273027 554.06904411 253.13381577 C553.40962028 253.13389215 552.75019645 253.13396854 552.07079008 253.13404724 C549.39332722 253.13435862 546.71586436 253.13467703 544.03840149 253.135007 C518.96903994 253.13805963 493.89968198 253.13530273 468.83032098 253.1299101 C446.60587287 253.12516576 424.38143049 253.1255894 402.15698242 253.13037109 C377.13220585 253.13573742 352.10743244 253.13784251 327.08265537 253.13475883 C324.41002746 253.13443816 321.73739956 253.13412532 319.06477165 253.13381577 C317.09269404 253.13358435 317.09269404 253.13358435 315.08077647 253.13334826 C305.85152946 253.13248773 296.62228449 253.13393599 287.3930378 253.13629532 C276.13266367 253.13911081 264.8722965 253.13831833 253.61192317 253.13301457 C247.87551805 253.130401 242.13912451 253.1293324 236.4027195 253.13266373 C231.1367113 253.13567544 225.87072526 253.13395401 220.60471904 253.12868617 C218.7146585 253.12758255 216.82459603 253.12810657 214.93453676 253.13056196 C196.53064373 253.15260898 178.12461098 252.80099382 159.875 250.25 C158.60293701 250.0744458 157.33087402 249.8988916 156.02026367 249.71801758 C132.57140596 246.32919715 110.84862278 239.25328821 90 228 C88.46666016 227.18789063 88.46666016 227.18789063 86.90234375 226.359375 C66.77189961 215.19686762 49.51119499 199.53861638 36 181 C35.36835937 180.16210938 34.73671875 179.32421875 34.0859375 178.4609375 C-4.52677943 125.7431185 0 63.28206398 0 0 Z " fill="#FE191C" transform="translate(75,690)"/>
<path d="M0 0 C28.7734709 -0.09143543 57.54692453 -0.16213387 86.32051235 -0.20426132 C89.72474285 -0.20926358 93.12897306 -0.21444093 96.53320312 -0.21972656 C97.21086633 -0.2207758 97.88852953 -0.22182505 98.58672798 -0.22290608 C109.53025976 -0.24026681 120.47370669 -0.27178032 131.41718829 -0.30861118 C142.66314106 -0.34614171 153.90905177 -0.36796231 165.1550703 -0.37635398 C171.46468095 -0.38155239 177.77409974 -0.3937045 184.08364868 -0.42292023 C190.03275264 -0.45024155 195.98158724 -0.45841135 201.93074799 -0.45243073 C204.10421975 -0.45352352 206.27770131 -0.46137695 208.45111847 -0.4768219 C229.8529291 -0.62134051 248.63765711 2.17630502 264.78515625 17.6171875 C278.86852045 32.76860225 283.63986482 50.8875188 283.50793457 71.0844574 C283.51255566 72.64930535 283.51891661 74.21414895 283.52684355 75.77898365 C283.54339455 80.03552085 283.5353561 84.29169493 283.52289867 88.54823267 C283.51379151 93.15570392 283.52784586 97.76311578 283.53881836 102.37057495 C283.55654849 111.3796838 283.55278811 120.38865889 283.5411678 129.39777284 C283.53211143 136.72423396 283.53091898 144.05065776 283.53526306 151.37712288 C283.53587599 152.42233287 283.53648893 153.46754287 283.53712043 154.54442589 C283.53839942 156.66817419 283.53969627 158.79192248 283.5410108 160.91567076 C283.55240061 180.8022119 283.5393283 200.68867912 283.51780933 220.57520813 C283.49994245 237.6137337 283.50304221 254.65215023 283.52148438 271.69067383 C283.54292389 291.50751716 283.55129937 311.32429579 283.53903532 331.1411491 C283.53776121 333.25711984 283.53650373 335.3730906 283.53526306 337.48906136 C283.53433741 339.05044373 283.53433741 339.05044373 283.53339306 340.64336918 C283.5299492 347.95477643 283.5357477 355.26614241 283.54518127 362.57754326 C283.55643705 371.49675666 283.5532864 380.41582937 283.5320583 389.33502679 C283.52159546 393.8798649 283.51734399 398.42446903 283.53065491 402.96930504 C283.54268448 407.13994291 283.53584485 411.31013272 283.5147447 415.48073066 C283.51032287 416.97920672 283.51244368 418.47772163 283.52224785 419.97617214 C283.63477622 438.62378281 279.37390582 456.00263196 266.31030273 469.8371582 C252.43337201 483.87286922 235.44186424 489.16087966 216.09121704 489.36076355 C211.76189183 489.38066262 207.43329169 489.36211615 203.10400391 489.34057617 C200.70788076 489.3397287 198.31175685 489.34020739 195.91563416 489.34190369 C190.11685894 489.34267172 184.31823418 489.32974725 178.51949324 489.31059071 C171.76444364 489.28902837 165.00941452 489.28464512 158.25433533 489.2812262 C146.21054095 489.27468127 134.16680797 489.25477365 122.12304688 489.22631836 C110.43262028 489.19872682 98.74221045 489.17751828 87.05175781 489.16479492 C86.32959602 489.16400675 85.60743422 489.16321858 84.86338873 489.16240653 C81.2400484 489.15849105 77.61670796 489.15470001 73.99336743 489.15097082 C43.99553529 489.11993598 13.99777487 489.06692895 -16 489 C-13.00300754 486.66549197 -9.97766656 484.93071753 -6.56689453 483.24682617 C-0.13773305 480.04947339 4.62877177 477.61279383 8 471 C9.04764548 467.85706357 9.26995248 465.42995652 9.375 462.125 C9.42398438 461.09632813 9.47296875 460.06765625 9.5234375 459.0078125 C8.81759408 448.54200315 2.23806666 438.05999187 -2.27420044 428.71548462 C-12.18414764 408.11984048 -20.40926704 387.19986878 -26 365 C-26.26683594 363.97398682 -26.26683594 363.97398682 -26.5390625 362.92724609 C-31.72298687 342.42297382 -30.99551027 320.05142026 -20.94140625 301.203125 C-15.76058129 292.65528503 -9.73080763 284.65003447 -3.75390625 276.6484375 C32.66204763 227.63621721 50.92983417 163.81195862 42 103 C36.15707942 67.43390512 23.93917143 34.17688343 2.203125 5.10546875 C0 2 0 2 0 0 Z " fill="#FE191C" transform="translate(584,158)"/>
<path d="M0 0 C1.09606567 0.00304138 2.19213135 0.00608276 3.32141113 0.00921631 C28.26322236 0.11141823 51.65326264 2.75212127 75.5 10.4375 C76.32822266 10.70433594 77.15644531 10.97117187 78.00976562 11.24609375 C120.96000434 25.41594362 156.22121523 56.29323179 176.59326172 96.60058594 C185.58362966 115.04555474 191.32652463 134.20090543 194.5 154.4375 C194.61714355 155.14181152 194.73428711 155.84612305 194.85498047 156.57177734 C202.12689646 200.88400243 188.63546954 251.21462132 162.6875 287.6875 C159.4393696 292.13424366 155.9227116 296.33726424 152.37036133 300.54223633 C133.87621016 322.48796304 122.80765563 345.462637 123.125 374.6875 C123.12965271 375.36514404 123.13430542 376.04278809 123.13909912 376.7409668 C123.22605756 387.58242232 123.95373824 397.89388846 126.5 408.4375 C126.70399414 409.31245117 126.90798828 410.18740234 127.11816406 411.08886719 C131.82712761 431.02827759 138.41126841 449.71997076 147.03198242 468.30224609 C147.49580322 469.31754395 147.95962402 470.3328418 148.4375 471.37890625 C148.85902344 472.28326416 149.28054688 473.18762207 149.71484375 474.11938477 C150.5 476.4375 150.5 476.4375 149.5 479.4375 C146.89442444 480.42295837 146.89442444 480.42295837 143.34399414 481.29663086 C142.6935422 481.46043653 142.04309027 481.62424219 141.37292767 481.79301167 C139.17989034 482.3418818 136.98273861 482.8719883 134.78515625 483.40234375 C133.21719663 483.79063244 131.64951449 484.18004316 130.08209229 484.57049561 C125.80756532 485.63175285 121.52920041 486.67671883 117.2499733 487.71883774 C112.74732882 488.81818462 108.24829675 489.93212755 103.7487793 491.04418945 C94.25616447 493.38725516 84.75897166 495.71133337 75.26049805 498.03051758 C69.59420491 499.41403943 63.9288464 500.80135905 58.26367188 502.18945312 C39.37086598 506.81767442 20.47649978 511.43967603 1.57130432 516.01707458 C-5.71705442 517.7826222 -13.00263655 519.55779938 -20.28031063 521.36696529 C-23.70382677 522.21756521 -27.12856205 523.06319631 -30.55338478 523.90851784 C-32.17950012 524.31140481 -33.80500524 524.71676388 -35.42984581 525.12476158 C-37.67414058 525.68815674 -39.92039445 526.24300737 -42.16723633 526.79614258 C-44.07947746 527.2728112 -44.07947746 527.2728112 -46.03034973 527.7591095 C-49.29358479 528.39714143 -52.18687121 528.57122014 -55.5 528.4375 C-58.04711914 515.7019043 -60.59423828 502.96630859 -63.14135742 490.23071289 C-63.29725279 489.45128138 -63.45314816 488.67184986 -63.61376762 487.86879921 C-63.92691409 486.30297544 -64.23999026 484.7371376 -64.55299568 483.17128563 C-65.32614862 479.30393047 -66.10049477 475.43682201 -66.87741089 471.57022095 C-68.26739968 464.64655555 -69.64400375 457.72142795 -70.96728516 450.78466797 C-71.30092827 449.0555442 -71.30092827 449.0555442 -71.64131165 447.29148865 C-72.04512486 445.1933293 -72.44217063 443.09385001 -72.83073425 440.99281311 C-74.17368758 433.83289555 -74.17368758 433.83289555 -77.5 427.4375 C-82.41365943 424.90124732 -86.05391456 424.06219814 -91.65356445 424.05273438 C-92.33102722 424.0473616 -93.00848999 424.04198883 -93.70648193 424.03645325 C-95.16541522 424.02673329 -96.62440592 424.02371346 -98.0833683 424.02680969 C-100.40149165 424.03132442 -102.71886617 424.01718449 -105.03691101 423.99841309 C-109.96209544 423.9617777 -114.88719946 423.9479538 -119.8125 423.9375 C-125.51480249 423.92536863 -131.21673677 423.90356262 -136.91887474 423.85749817 C-139.18657305 423.8440565 -141.45379023 423.84807539 -143.72151184 423.85290527 C-156.8251124 423.80387605 -168.34759625 421.33967947 -178.25 412.25 C-184.89716794 405.20091027 -187.6454263 397.06073056 -187.625 387.5625 C-187.62886719 385.77199219 -187.62886719 385.77199219 -187.6328125 383.9453125 C-187.50888033 380.67204522 -187.08724553 377.65439649 -186.5 374.4375 C-185.02131331 364.57493875 -187.64225958 357.79056641 -192.38623047 349.32543945 C-195.3886147 343.74477988 -196.19759149 339.63213711 -194.5 333.4375 C-192.9375 330.5625 -192.9375 330.5625 -191.5 328.4375 C-191.5 327.4475 -191.5 326.4575 -191.5 325.4375 C-192.86125 324.3546875 -192.86125 324.3546875 -194.25 323.25 C-197.99539195 320.26969999 -200.16403644 317.05113812 -201.5 312.4375 C-201.9653219 305.94569206 -199.6271312 300.985636 -196.5 295.4375 C-197.57314453 295.05271484 -197.57314453 295.05271484 -198.66796875 294.66015625 C-208.98450598 290.69636381 -221.32480146 284.78789709 -226.5 274.4375 C-228.25927813 261.04299608 -222.63841734 253.45348527 -214.8125 243.1875 C-213.51018759 241.5271144 -212.20171001 239.87170712 -210.89306641 238.21630859 C-204.36325378 229.87838101 -198.0878158 221.32583922 -191.875 212.75 C-191.46121094 212.18611572 -191.04742187 211.62223145 -190.62109375 211.04125977 C-187.27758407 206.38553511 -185.21584426 202.46972896 -185.1875 196.6875 C-185.17074219 195.90890625 -185.15398437 195.1303125 -185.13671875 194.328125 C-185.47017359 191.67482839 -186.07530982 189.73996799 -186.99609375 187.25390625 C-188.77039341 182.15536829 -188.95885025 177.48804275 -188.875 172.125 C-188.86484863 171.167146 -188.85469727 170.20929199 -188.84423828 169.22241211 C-188.08602675 133.53651045 -175.70599913 96.50341557 -153.5 68.4375 C-152.8503125 67.58542969 -152.200625 66.73335938 -151.53125 65.85546875 C-124.91592998 31.9407979 -86.62394621 11.22296587 -44.5 3.4375 C-43.83577026 3.31255157 -43.17154053 3.18760315 -42.48718262 3.05886841 C-28.30167329 0.45785467 -14.3988815 -0.08485981 0 0 Z M-70.5 37.4375 C-71.21849121 37.73495117 -71.93698242 38.03240234 -72.67724609 38.33886719 C-89.77246482 45.5315337 -104.82603759 55.97900092 -118.5 68.4375 C-119.28375 69.13875 -120.0675 69.84 -120.875 70.5625 C-147.26317698 95.44278115 -162.36229445 133.59702509 -163.75 169.50390625 C-163.91453637 177.45311842 -163.46944212 184.98540372 -161.95703125 192.80859375 C-159.8080589 205.16977656 -163.46955468 215.33628547 -170.5 225.4375 C-173.56590811 229.59562371 -176.73183653 233.67621635 -179.8984375 237.7578125 C-185.43029779 244.90503695 -190.7429842 252.21633463 -196.08056641 259.5090332 C-197.54179881 261.49428857 -199.01812934 263.46761604 -200.5 265.4375 C-199.06902109 269.08842996 -197.57409752 270.27440741 -194.0625 271.9375 C-192.72638672 272.57558594 -192.72638672 272.57558594 -191.36328125 273.2265625 C-188.5267091 274.4262042 -185.6817973 275.37400401 -182.75 276.3125 C-177.4985907 278.13487292 -174.38717271 280.68799069 -171.5 285.4375 C-169.33144714 291.94315858 -170.61713776 297.45101579 -173.5 303.4375 C-175.1875 305.9375 -175.1875 305.9375 -176.5 307.4375 C-173.27992831 315.05296955 -163.54201567 318.0463654 -156.5 321.4375 C-156.5 324.0775 -156.5 326.7175 -156.5 329.4375 C-160.4745942 331.24413373 -164.19017128 331.85733075 -168.5 332.4375 C-169.84744221 333.57108418 -169.84744221 333.57108418 -169.77734375 336.55078125 C-169.46753004 340.89253683 -168.13787208 343.90070216 -166.0625 347.625 C-162.77107452 353.7190254 -161.35876068 357.84583084 -161.375 364.8125 C-161.37113281 366.46378906 -161.37113281 366.46378906 -161.3671875 368.1484375 C-161.49590789 371.33616001 -161.96436062 374.29670547 -162.5 377.4375 C-163.57302591 386.77492061 -163.57302591 386.77492061 -160.375 395.1875 C-155.64158921 398.89190844 -151.17653643 399.68403639 -145.2578125 399.72460938 C-144.042146 399.73802368 -142.82647949 399.75143799 -141.57397461 399.76525879 C-139.61923218 399.77317444 -139.61923218 399.77317444 -137.625 399.78125 C-136.25462721 399.79491574 -134.88426522 399.80970646 -133.51391602 399.82556152 C-129.17600924 399.8735953 -124.83805787 399.9065646 -120.5 399.9375 C-115.49390392 399.97345469 -110.48801538 400.01594224 -105.4821167 400.07344055 C-103.50067116 400.09312251 -101.51912429 400.10161613 -99.53759766 400.10974121 C-69.70933916 400.43219317 -69.70933916 400.43219317 -59.8671875 409.74609375 C-54.3943006 416.51683668 -52.16353844 423.98127263 -50.609375 432.36328125 C-50.44321686 433.22577484 -50.27705872 434.08826843 -50.10586548 434.97689819 C-49.74936737 436.8320734 -49.396206 438.68789236 -49.04608154 440.54428101 C-48.49456945 443.46627183 -47.93341708 446.38626283 -47.36962891 449.3059082 C-46.19630863 455.38983594 -45.03488409 461.47599859 -43.875 467.5625 C-43.28082691 470.67778924 -42.68639037 473.79302767 -42.09146118 476.90817261 C-41.72589618 478.82257208 -41.36076898 480.73705524 -40.9961853 482.65164185 C-39.8634039 488.5869522 -38.69466346 494.51433765 -37.5 500.4375 C-27.1786361 498.81837455 -17.10554245 496.1993345 -6.98046875 493.66796875 C-5.05607537 493.18966731 -3.13159418 492.7117191 -1.20703125 492.23410034 C2.8638594 491.22328982 6.93427375 490.21059299 11.00430298 489.19631958 C21.53204593 486.57305437 32.06292118 483.96240682 42.59375 481.3515625 C43.63138803 481.0942013 44.66902607 480.8368401 45.73810768 480.57168007 C63.5802493 476.14717578 81.43624633 471.78459635 99.3125 467.5 C101.00410751 467.09447403 101.00410751 467.09447403 102.72988892 466.68075562 C108.65222114 465.26196261 114.57551161 463.84726149 120.5 462.4375 C119.25781125 458.65670025 117.95280718 454.91422912 116.546875 451.19140625 C100.634059 408.51407436 91.37933116 363.96190486 110.65478516 320.85498047 C116.46143225 308.61996447 123.48904516 298.13041587 132.4362793 287.95214844 C161.20522548 254.98294632 173.403224 212.61028616 171.5 169.4375 C168.23632069 129.53222109 149.7610296 90.38952874 119.49609375 63.90234375 C67.37392841 21.02217905 -8.38476495 11.34554949 -70.5 37.4375 Z " fill="#FC191C" transform="translate(384.5,114.5625)"/>
<path d="M0 0 C5.13863126 3.68563897 8.25718298 8.68973859 10.265625 14.625 C11.42118151 22.54360302 10.00422531 29.14476617 5.265625 35.625 C-0.99784805 41.625 -0.99784805 41.625 -4.734375 41.625 C-4.67677002 42.32471924 -4.61916504 43.02443848 -4.55981445 43.74536133 C-4.32846559 46.97492763 -4.18735737 50.20275662 -4.046875 53.4375 C-3.90862305 55.08782227 -3.90862305 55.08782227 -3.76757812 56.77148438 C-3.54950544 63.49208793 -4.69994991 67.66748629 -9.01953125 72.91015625 C-14.58933719 78.34881219 -20.34529311 78.63936446 -27.83750916 78.58152771 C-30.51426657 78.50686984 -33.18508965 78.38639871 -35.859375 78.25 C-47.79872612 77.16356944 -47.79872612 77.16356944 -58.85864258 80.51293945 C-61.12698064 82.76837221 -62.92813641 84.9926757 -64.734375 87.625 C-65.86663996 88.94922292 -67.01034375 90.26387171 -68.171875 91.5625 C-68.72875 92.21347656 -69.285625 92.86445313 -69.859375 93.53515625 C-72.03630198 95.96152278 -74.34045719 98.22189205 -76.671875 100.5 C-81.46396244 105.22604029 -85.65953021 110.27534344 -89.734375 115.625 C-84.58173261 127.77855599 -70.17896213 142.3027563 -58.734375 148.625 C-51.04296426 151.23144273 -42.82658526 150.73334486 -34.85791016 149.9519043 C-24.12238223 148.92331287 -24.12238223 148.92331287 -19.66918945 151.17456055 C-16.23947393 154.1585225 -13.97363979 156.65133943 -13.41455078 161.26318359 C-13.55666114 163.13816682 -13.7585783 165.00926176 -14.00952148 166.87280273 C-14.80344856 172.77343419 -14.86219202 178.00333991 -12.734375 183.625 C-10.88527244 185.88143001 -8.75572682 187.64491508 -6.46875 189.4453125 C-5.85033737 189.93356003 -5.23192474 190.42180756 -4.59477234 190.92485046 C-3.28939794 191.94572639 -1.98299093 192.96528311 -0.67562866 193.98361206 C7.9757704 200.80061252 14.84523877 207.09859156 16.68408203 218.40478516 C17.52262469 226.23219489 17.56861076 234.0121679 17.390625 241.875 C17.36670685 243.18072968 17.3427887 244.48645935 17.31814575 245.83175659 C17.21803835 249.60723158 17.04978885 253.3699832 16.8359375 257.140625 C16.77793472 258.27921463 16.71993195 259.41780426 16.66017151 260.59089661 C16.05350126 267.90998975 14.31633258 272.28836997 9.265625 277.625 C8.50378906 278.48867188 7.74195313 279.35234375 6.95703125 280.2421875 C6.25449219 280.98726563 5.55195313 281.73234375 4.828125 282.5 C1.1540555 286.50473576 -1.87019746 290.6498327 -4.85546875 295.1796875 C-6.89949155 297.83989181 -9.1417341 299.63052584 -11.734375 301.75 C-18.57604236 308.23814656 -19.94617851 317.06382451 -22.1640625 325.9453125 C-24.57654524 335.03661068 -26.73762432 339.70120913 -35.04882812 344.59375 C-35.95568359 345.0990625 -36.86253906 345.604375 -37.796875 346.125 C-38.70759766 346.66125 -39.61832031 347.1975 -40.55664062 347.75 C-47.26375159 351.625 -47.26375159 351.625 -50.734375 351.625 C-50.23510498 351.15191406 -49.73583496 350.67882812 -49.22143555 350.19140625 C-46.94151805 348.01616938 -44.68180544 345.82098738 -42.421875 343.625 C-41.24334961 342.50931641 -41.24334961 342.50931641 -40.04101562 341.37109375 C-33.01608139 334.4956262 -30.9635953 328.88840553 -29.40551758 319.36889648 C-27.87582002 310.0834106 -25.78620235 303.04569306 -19.734375 295.625 C-19.0640625 294.78710938 -18.39375 293.94921875 -17.703125 293.0859375 C-14.46336121 289.10666241 -11.25517428 285.17024209 -7.73608398 281.4362793 C2.53895032 269.94693376 3.81798275 258.66259933 4.015625 243.625 C4.04567627 242.49413971 4.07572754 241.36327942 4.10668945 240.19815063 C4.31927022 227.87491808 4.06983006 217.02582388 -4.34307861 207.42044067 C-10.17391398 201.41463322 -16.98152903 196.59123039 -24.06274414 192.171875 C-27.15874004 190.00503116 -28.5237672 188.70400033 -29.26318359 184.91577148 C-29.42427107 181.66175372 -29.34620489 178.50288077 -29.171875 175.25 C-29.14029297 174.13238281 -29.10871094 173.01476562 -29.07617188 171.86328125 C-28.99394261 169.11447428 -28.87909117 166.37110864 -28.734375 163.625 C-29.72244141 163.66165771 -30.71050781 163.69831543 -31.72851562 163.73608398 C-35.42564788 163.86363698 -39.12258976 163.94344631 -42.82128906 164.00952148 C-44.41602372 164.04453336 -46.01053677 164.09216172 -47.60449219 164.15307617 C-49.90876046 164.23887339 -52.21004055 164.27787324 -54.515625 164.30859375 C-55.56925232 164.36278725 -55.56925232 164.36278725 -56.64416504 164.41807556 C-62.15623403 164.42236069 -64.89762834 162.40445516 -68.80618286 158.63560486 C-71.85734718 155.45403095 -74.84122854 152.22938141 -77.77734375 148.94140625 C-79.7966949 146.76272127 -81.8258049 144.59344017 -83.85620117 142.42504883 C-85.228964 140.93806487 -86.58314116 139.43369703 -87.91772461 137.91235352 C-96.48805255 127.9236127 -96.48805255 127.9236127 -108.46728516 123.65576172 C-113.60633112 123.49969856 -118.65184885 123.86928176 -123.734375 124.625 C-124.19714844 125.56214844 -124.65992188 126.49929688 -125.13671875 127.46484375 C-128.74402726 134.60008233 -133.20521683 138.04840169 -140.734375 140.625 C-146.81609959 141.60347441 -152.42879487 141.21132581 -157.81640625 138.08984375 C-163.25053145 133.93954447 -168.60290877 128.55523069 -169.734375 121.625 C-170.69516004 113.87105878 -169.17157826 108.07506991 -164.734375 101.625 C-160.57185905 97.03580247 -156.20376152 94.04171402 -149.9375 93.2890625 C-142.18565401 93.18652485 -135.87902906 93.94383414 -129.91796875 99.23828125 C-126.41104989 103.04941476 -125.47658531 105.39836907 -123.734375 110.625 C-116.474375 110.625 -109.214375 110.625 -101.734375 110.625 C-100.744375 108.645 -100.744375 108.645 -99.734375 106.625 C-94.72018107 99.86016078 -89.06731573 93.82130418 -83.05859375 87.94140625 C-81.08666605 85.97610688 -79.23567532 83.9843826 -77.421875 81.875 C-76.89215088 81.28452881 -76.36242676 80.69405762 -75.81665039 80.08569336 C-74.18219579 78.15420456 -72.73988264 76.23518613 -71.27978516 74.17822266 C-67.04625398 68.57285452 -63.07943602 63.61660559 -55.83227539 62.48632812 C-50.34159345 62.08169292 -44.90677221 62.39699508 -39.421875 62.75 C-37.50608944 62.82037249 -35.59005277 62.88422502 -33.67382812 62.94140625 C-29.01595238 63.08237093 -24.39352134 63.35558631 -19.734375 63.625 C-19.734375 56.695 -19.734375 49.765 -19.734375 42.625 C-22.704375 41.635 -22.704375 41.635 -25.734375 40.625 C-29.25466791 38.09038911 -31.38509469 36.41934663 -33.14453125 32.41796875 C-35.38878064 29.37723376 -35.38878064 29.37723376 -38.24902344 29.38232422 C-41.523759 29.58087284 -44.78067708 29.87950226 -48.046875 30.1875 C-61.09434002 30.91056718 -61.09434002 30.91056718 -66.36328125 26.34375 C-68.30625365 24.3273018 -70.07351668 22.23144689 -71.84326172 20.0625 C-75.33179791 15.7625222 -75.33179791 15.7625222 -80.30078125 13.40625 C-83.21558864 13.21710838 -85.84883589 13.20049797 -88.734375 13.625 C-88.97913574 14.19573242 -89.22389648 14.76646484 -89.47607422 15.35449219 C-90.9545697 18.02232454 -92.69564048 19.81216315 -94.8671875 21.953125 C-95.67285156 22.75234375 -96.47851562 23.5515625 -97.30859375 24.375 C-98.15035156 25.2 -98.99210937 26.025 -99.859375 26.875 C-100.70886719 27.71546875 -101.55835938 28.5559375 -102.43359375 29.421875 C-104.52942423 31.49415683 -106.62978213 33.56162393 -108.734375 35.625 C-107.96609375 36.3675 -107.1978125 37.11 -106.40625 37.875 C-102.14154118 42.26440791 -98.20583709 47.33883883 -97.734375 53.625 C-97.610625 54.841875 -97.486875 56.05875 -97.359375 57.3125 C-97.47898865 63.65202337 -100.46644126 69.09627717 -104.63671875 73.74609375 C-110.27669147 78.95305513 -115.5900242 81.20804741 -123.30078125 81 C-130.46653493 79.89580682 -136.08506062 76.00671307 -140.578125 70.46875 C-144.68270965 63.92360151 -144.39794873 57.12848753 -143.734375 49.625 C-142.05530073 42.97246523 -137.33383868 38.34835472 -131.734375 34.625 C-130.08865056 33.92752631 -128.42023186 33.28144034 -126.734375 32.6875 C-120.99082307 30.62052496 -117.68738095 27.16425683 -113.734375 22.625 C-113.2084375 22.02945313 -112.6825 21.43390625 -112.140625 20.8203125 C-111.6146875 20.21960938 -111.08875 19.61890625 -110.546875 19 C-109.96550781 18.35804688 -109.38414062 17.71609375 -108.78515625 17.0546875 C-107.12034767 15.08228572 -105.68183989 13.12215669 -104.21484375 11.0078125 C-99.74745899 4.97339029 -95.82224738 0.62009337 -88.1640625 -0.6953125 C-80.73724178 -1.32901471 -72.87587035 -1.61792071 -66.84375 3.31640625 C-64.01368053 6.14473038 -61.84471652 9.23581097 -59.734375 12.625 C-58.05136831 14.30800669 -55.91428773 13.85309077 -53.60546875 13.94140625 C-52.05375977 14.00424805 -52.05375977 14.00424805 -50.47070312 14.06835938 C-49.38208984 14.10767578 -48.29347656 14.14699219 -47.171875 14.1875 C-46.07939453 14.23068359 -44.98691406 14.27386719 -43.86132812 14.31835938 C-41.15247936 14.42482068 -38.44353508 14.52683516 -35.734375 14.625 C-35.59338379 13.84326416 -35.45239258 13.06152832 -35.30712891 12.25610352 C-34.23659132 7.33829295 -30.90983052 3.26596861 -26.921875 0.2578125 C-18.13865714 -4.92882908 -8.87833412 -4.91379499 0 0 Z " fill="#FB171B" transform="translate(424.734375,172.375)"/>
<path d="M0 0 C5.08268342 5.20088536 7.39655731 10.83468123 7.84375 18.1015625 C7.44533988 24.85461408 4.98689544 30.80496539 0.375 35.75 C-5.77135394 41.15723542 -11.36650627 42.08224439 -19.34765625 42.05078125 C-22.5707408 41.72380166 -25.26248426 40.813233 -28.3125 39.75 C-33.72255369 44.48972256 -38.97648184 49.32690814 -44.03125 54.44140625 C-44.50618896 54.92185394 -44.98112793 55.40230164 -45.47045898 55.89730835 C-47.42149988 57.87594197 -49.36843509 59.8585268 -51.31152344 61.8449707 C-52.75547815 63.31890943 -54.20542297 64.78673637 -55.65625 66.25390625 C-56.50380859 67.11830322 -57.35136719 67.9827002 -58.22460938 68.87329102 C-60.3125 70.75 -60.3125 70.75 -62.3125 70.75 C-62.3125 71.41 -62.3125 72.07 -62.3125 72.75 C-47.4625 73.08 -32.6125 73.41 -17.3125 73.75 C-16.6525 72.1 -15.9925 70.45 -15.3125 68.75 C-13.54296875 66.80078125 -13.54296875 66.80078125 -11.5 65.0625 C-10.83355469 64.48113281 -10.16710937 63.89976562 -9.48046875 63.30078125 C-3.52216528 59.03871552 2.59846352 59.03001973 9.6875 59.75 C16.33222914 61.52342433 20.86117959 66.1966647 24.6875 71.75 C27.72476272 77.98705454 27.87910191 84.94644928 25.8125 91.54296875 C22.70289603 98.30431159 18.58834847 102.79957577 11.9375 106.125 C4.83691729 107.49049667 -2.04000515 107.86485813 -8.4609375 104.15234375 C-13.26930211 100.51056549 -17.78133627 95.70452563 -19.3125 89.75 C-19.3125 88.76 -19.3125 87.77 -19.3125 86.75 C-35.1525 87.08 -50.9925 87.41 -67.3125 87.75 C-61.87798306 93.18451694 -56.91992673 98.12984133 -51.18359375 103.03515625 C-49.19775954 104.85515879 -47.44801095 106.77462189 -45.6875 108.8125 C-45.11515625 109.47121094 -44.5428125 110.12992187 -43.953125 110.80859375 C-42.89021934 112.06636545 -41.85640232 113.34954776 -40.859375 114.66015625 C-39.31554155 116.65393557 -39.31554155 116.65393557 -36.3125 118.75 C-33.98994989 118.61767396 -32.02657126 118.03288867 -29.80078125 117.36328125 C-24.349092 116.0196153 -18.90142417 116.59179708 -13.7890625 118.87890625 C-7.43777901 122.75086811 -3.65464675 127.72355975 -1.3125 134.75 C-0.60849482 142.43635164 -0.86187429 149.2423624 -5.3125 155.75 C-10.8297461 161.99729385 -16.30346601 164.6035327 -24.625 165.1875 C-30.98699067 165.01379377 -36.52342449 162.27454464 -41.20703125 158.03515625 C-46.03393318 152.66801712 -47.59408053 148.08391737 -47.5625 140.8125 C-47.57023437 139.03552734 -47.57023437 139.03552734 -47.578125 137.22265625 C-47.31150212 133.73695422 -46.47088905 131.028172 -45.3125 127.75 C-46.58311279 126.50295288 -46.58311279 126.50295288 -47.87939453 125.23071289 C-51.05175577 122.11308483 -54.21382319 118.98518355 -57.37304688 115.85424805 C-58.73586515 114.5064182 -60.10137609 113.16130487 -61.46972656 111.8190918 C-77.36234002 96.22228976 -77.36234002 96.22228976 -80.3125 89.75 C-80.3125 88.76 -80.3125 87.77 -80.3125 86.75 C-81.51261719 86.77094727 -82.71273437 86.79189453 -83.94921875 86.81347656 C-88.42940193 86.88623187 -92.90953355 86.93192832 -97.39013672 86.96972656 C-99.32414552 86.98976141 -101.25809435 87.01699729 -103.19189453 87.05175781 C-105.98224743 87.10063571 -108.77179501 87.12305019 -111.5625 87.140625 C-112.845802 87.17159271 -112.845802 87.17159271 -114.1550293 87.20318604 C-120.24433685 87.20542893 -124.04753906 85.81768894 -129.3125 82.75 C-128.60114254 79.49520406 -127.94977752 77.88010877 -125.3125 75.75 C-122.09001877 74.67583959 -119.72837008 74.86283912 -116.38575745 75.14785767 C-94.63518361 77.30264562 -94.63518361 77.30264562 -74.95246887 69.79072571 C-68.40224281 64.21872978 -62.84777455 57.63837531 -57.64819336 50.81201172 C-53.30946591 45.12409287 -48.53511652 39.82920685 -43.5 34.75 C-42.75105469 33.986875 -42.00210938 33.22375 -41.23046875 32.4375 C-39.3125 30.75 -39.3125 30.75 -37.3125 30.75 C-37.8075 29.1103125 -37.8075 29.1103125 -38.3125 27.4375 C-40.17612842 19.80742711 -40.55783486 12.399787 -36.5078125 5.4609375 C-32.62706718 -0.09385482 -27.62911243 -3.63127034 -21.3125 -6 C-13.00742608 -7.03813424 -6.66938156 -4.96835243 0 0 Z " fill="#FA181C" transform="translate(492.3125,206.25)"/>
<path d="M0 0 C10.23 0 20.46 0 31 0 C32.56492187 4.83914063 34.12984375 9.67828125 35.7421875 14.6640625 C36.73564757 17.73568663 37.72912348 20.80730563 38.72265625 23.87890625 C40.29849429 28.75076387 41.87427474 33.62264006 43.44970703 38.49462891 C44.72031687 42.42394865 45.99118932 46.35318336 47.26224136 50.28236008 C47.74633194 51.77897512 48.23032901 53.27562042 48.71422958 54.77229691 C49.39370907 56.87383227 50.0735255 58.97525837 50.75341797 61.07666016 C51.13980438 62.27134918 51.5261908 63.46603821 51.92428589 64.69692993 C52.93574352 67.8026951 53.9629513 70.90269742 55 74 C67.10391468 37.03359793 67.10391468 37.03359793 79 0 C88.9 0 98.8 0 109 0 C109 33 109 66 109 100 C102.4 100 95.8 100 89 100 C88.67 76.57 88.34 53.14 88 29 C85.339375 36.816875 82.67875 44.63375 79.9375 52.6875 C79.1137085 55.10666748 78.28991699 57.52583496 77.44116211 60.01831055 C72.91142459 73.32944747 68.43227833 86.65607573 64 100 C57.73 100 51.46 100 45 100 C42.47825855 92.56655811 39.95686045 85.13299996 37.4360323 77.69924831 C36.26493337 74.24579958 35.09369618 70.79239789 33.92211914 67.33911133 C32.78707539 63.99349056 31.65242594 60.64773629 30.51802635 57.30189705 C29.88421274 55.43281944 29.25001244 53.56387298 28.61579895 51.69493103 C25.71544701 43.13902972 22.8569361 34.57080831 20 26 C19.67 50.09 19.34 74.18 19 99 C12.73 99 6.46 99 0 99 C0 66.33 0 33.66 0 0 Z " fill="#FEFAFA" transform="translate(491,742)"/>
<path d="M0 0 C0.91727802 -0.00453111 1.83455604 -0.00906223 2.77963036 -0.01373065 C5.8603145 -0.02641401 8.94082275 -0.02475173 12.02153015 -0.02310181 C14.22748544 -0.02908462 16.43343862 -0.03588959 18.63938904 -0.04345703 C24.63737594 -0.06114994 30.63530581 -0.06581382 36.63331628 -0.0670886 C41.63831442 -0.0689862 46.64329923 -0.07634218 51.64829224 -0.08343279 C62.78141959 -0.09879598 73.91452584 -0.10476959 85.04766152 -0.10342209 C85.71563485 -0.10334218 86.38360818 -0.10326227 87.07182312 -0.10317993 C88.07500834 -0.10305729 88.07500834 -0.10305729 89.09845992 -0.10293217 C99.93466803 -0.10211945 110.77073707 -0.12125345 121.60690496 -0.14945666 C132.7365605 -0.17819484 143.86616514 -0.19163027 154.99586266 -0.19026911 C161.24306629 -0.1897589 167.4901126 -0.19547477 173.73728371 -0.21662521 C179.61339173 -0.23597557 185.48919185 -0.23615377 191.36531067 -0.22159195 C193.52159257 -0.21949875 195.67789359 -0.22423505 197.83414268 -0.23631287 C200.77895136 -0.25173875 203.72269489 -0.24247434 206.66748047 -0.22705078 C207.51982547 -0.23733791 208.37217046 -0.24762503 209.2503441 -0.25822389 C214.97514897 -0.19201145 218.32098097 0.95531708 223.0242157 4.26742554 C225.50107799 7.67311118 226.26485979 10.20250214 225.9617157 14.32992554 C225.28262256 18.19042239 223.86777057 20.50511509 221.0242157 23.26742554 C218.25456153 24.90703013 216.22592943 25.51806792 213.0192585 25.52469444 C212.2277471 25.53114334 211.4362357 25.53759223 210.6207391 25.54423654 C209.75712887 25.54113934 208.89351864 25.53804213 208.0037384 25.53485107 C207.08167127 25.53938219 206.15960413 25.5439133 205.20959556 25.54858172 C202.11275817 25.56126537 199.01609576 25.55960279 195.91923523 25.55795288 C193.70180535 25.56393563 191.48437755 25.57074059 189.26695251 25.57830811 C183.23804206 25.5960006 177.20918836 25.60066484 171.18025446 25.60193968 C166.1503088 25.6038371 161.12037642 25.6111928 156.09043586 25.61828387 C144.9030996 25.63364657 133.71578433 25.63962068 122.52843978 25.63827316 C121.5216052 25.6381533 121.5216052 25.6381533 120.49443054 25.63803101 C119.48636594 25.63790836 119.48636594 25.63790836 118.45793639 25.63778324 C107.56608758 25.63697031 96.67437705 25.65610988 85.78256823 25.68430774 C74.59754692 25.7130361 63.41257626 25.72648179 52.22751319 25.72512019 C45.94848372 25.72460976 39.66961072 25.73033765 33.39061356 25.75147629 C27.48578193 25.77081205 21.5812568 25.77101492 15.67641449 25.75644302 C13.50842467 25.75434807 11.3404159 25.75909646 9.17245865 25.77116394 C6.21416351 25.78656497 3.25693197 25.77734197 0.29866028 25.76190186 C-0.9900629 25.77733254 -0.9900629 25.77733254 -2.3048209 25.79307497 C-8.63652424 25.71998038 -12.10060965 23.85508273 -16.8507843 19.57992554 C-18.66419911 15.85235065 -18.7338953 12.31770377 -17.9757843 8.26742554 C-13.88990382 0.59829274 -7.95088201 -0.0286664 0 0 Z " fill="#1C1A1C" transform="translate(608.9757843017578,503.7325744628906)"/>
<path d="M0 0 C7.59 0 15.18 0 23 0 C23.82242188 1.52367187 24.64484375 3.04734375 25.4921875 4.6171875 C31.02395347 14.85441138 36.57033304 25.08105978 42.24389648 35.24047852 C46.2089243 42.34948897 50.09855615 49.49918076 53.97875977 56.65478516 C54.45885498 57.53827637 54.9389502 58.42176758 55.43359375 59.33203125 C56.06865845 60.50342651 56.06865845 60.50342651 56.71655273 61.69848633 C58.09086072 64.16293399 59.54822601 66.58037668 61 69 C61.33 46.23 61.66 23.46 62 0 C68.27 0 74.54 0 81 0 C81 32.67 81 65.34 81 99 C73.74 99 66.48 99 59 99 C48.61240636 81.03065697 38.28733131 63.02691564 28 45 C25.36 40.38 22.72 35.76 20 31 C19.67 53.44 19.34 75.88 19 99 C12.73 99 6.46 99 0 99 C0 66.33 0 33.66 0 0 Z " fill="#FEFDFD" transform="translate(139,742)"/>
<path d="M0 0 C7.84190627 4.16190556 12.49797184 11.12579827 15.43359375 19.30078125 C15.66175781 20.04714844 15.88992188 20.79351563 16.125 21.5625 C16.31707031 22.15546875 16.50914062 22.7484375 16.70703125 23.359375 C18.96081076 35.23910999 17.82959399 50.09171299 11.4375 60.4375 C6.06552121 67.63542232 0.12128318 72.8887729 -8.875 74.5625 C-16.03057656 75.46541187 -21.65740329 74.23409806 -27.875 70.5625 C-28.535 69.9025 -29.195 69.2425 -29.875 68.5625 C-30.205 79.1225 -30.535 89.6825 -30.875 100.5625 C-37.475 100.5625 -44.075 100.5625 -50.875 100.5625 C-50.875 67.2325 -50.875 33.9025 -50.875 -0.4375 C-44.605 -0.4375 -38.335 -0.4375 -31.875 -0.4375 C-31.545 1.8725 -31.215 4.1825 -30.875 6.5625 C-30.34390625 6.15257812 -29.8128125 5.74265625 -29.265625 5.3203125 C-28.20601562 4.51207031 -28.20601562 4.51207031 -27.125 3.6875 C-26.08085938 2.88699219 -26.08085938 2.88699219 -25.015625 2.0703125 C-17.82084484 -2.9975436 -8.19881793 -3.13357963 0 0 Z " fill="#FEFCFC" transform="translate(795.875,768.4375)"/>
<path d="M0 0 C0.82406188 -0.00523668 1.64812376 -0.01047336 2.49715722 -0.01586872 C5.26232405 -0.03088733 8.02730614 -0.03157428 10.79251099 -0.03224182 C12.77349155 -0.03986201 14.75446915 -0.04828926 16.73544312 -0.0574646 C22.11974061 -0.07942923 27.5039813 -0.08821105 32.88831854 -0.09329104 C36.25131881 -0.09693202 39.61430415 -0.10317071 42.97729874 -0.11029243 C54.70705063 -0.1347929 66.43675825 -0.14784031 78.16653442 -0.15138245 C89.10474547 -0.15501909 100.04267614 -0.18492227 110.98080146 -0.22678703 C120.36859377 -0.26145998 129.75629302 -0.27693036 139.14414895 -0.27762848 C144.75253645 -0.27842226 150.36063839 -0.28720743 155.96895981 -0.31562614 C161.24349977 -0.3417556 166.51751636 -0.3440405 171.79209137 -0.3279705 C173.72787998 -0.32615199 175.66369834 -0.3328829 177.59942245 -0.34878922 C180.24268502 -0.36918532 182.88410524 -0.35873687 185.52734375 -0.34057617 C186.67599279 -0.36037612 186.67599279 -0.36037612 187.84784687 -0.38057607 C193.64545737 -0.28961398 195.97692075 1.295047 199.89065552 5.27415466 C201.78876643 8.410164 201.89744495 10.08405068 201.76565552 13.77415466 C200.67168568 18.150034 199.00452459 20.82514568 195.25797749 23.39331818 C191.81815653 24.67321159 188.44764693 24.5632356 184.82600403 24.55503845 C184.00673127 24.5609807 183.1874585 24.56692294 182.34335929 24.57304525 C179.59435361 24.59040744 176.84552224 24.59343466 174.09646606 24.59642029 C172.12695951 24.60567744 170.15745655 24.61572687 168.18795776 24.62651062 C162.83459093 24.65275381 157.48127426 24.66564737 152.12785316 24.67453194 C148.78360617 24.68039374 145.43937291 24.68860338 142.09513283 24.69754028 C131.63265728 24.72488793 121.17021306 24.74422276 110.70770425 24.75194407 C98.62833926 24.76090753 86.54942669 24.79601424 74.47019929 24.85394526 C65.13419595 24.89716666 55.79831996 24.91735193 46.46221763 24.9200263 C40.88559667 24.92212314 35.30940104 24.93395336 29.73288536 24.96966553 C24.48700588 25.00260695 19.24187191 25.00694876 13.9959259 24.98938751 C12.07183652 24.98784567 10.14770721 24.99654714 8.22371864 25.01630402 C5.5936777 25.04172492 2.96628117 25.03000802 0.33625793 25.00914001 C-0.80218542 25.03330923 -0.80218542 25.03330923 -1.96362764 25.05796671 C-7.21789808 24.96065582 -9.92450846 23.38819071 -13.77735394 19.85378408 C-16.697422 16.3908275 -16.47473078 12.58571303 -16.10934448 8.27415466 C-12.08783269 0.66200734 -8.17253013 -0.02562535 0 0 Z " fill="#171A1B" transform="translate(633.1093444824219,564.7258453369141)"/>
<path d="M0 0 C1.23124913 -0.00935994 1.23124913 -0.00935994 2.48737198 -0.01890898 C5.2358571 -0.03485453 7.98345727 -0.02222876 10.73194885 -0.00964355 C12.7032269 -0.01506402 14.6745009 -0.02218626 16.64576721 -0.03088379 C21.99910995 -0.04913013 27.35214456 -0.0420438 32.70549273 -0.02936745 C38.30677293 -0.0192452 43.90802663 -0.02863111 49.50930786 -0.03491211 C58.91706583 -0.04219136 68.32469823 -0.03259409 77.73243713 -0.0135498 C88.60873338 0.00821308 99.48472964 0.00117283 110.3610186 -0.02085543 C119.69789238 -0.03900899 129.03467586 -0.04156774 138.37156159 -0.03110075 C143.94856785 -0.0248648 149.52543314 -0.02403295 155.10243034 -0.0372467 C160.34659485 -0.04880364 165.59037279 -0.04078206 170.83449554 -0.01766968 C172.75897899 -0.01238152 174.68349498 -0.01389819 176.60796547 -0.02272034 C179.23566453 -0.03365535 181.86212585 -0.01993725 184.48974609 0 C185.63153553 -0.01338433 185.63153553 -0.01338433 186.79639143 -0.02703905 C191.93417557 0.04854664 194.86479999 1.24456628 198.80836487 4.50793457 C201.6362928 8.74982647 201.58958772 12.526672 200.80836487 17.50793457 C199.1282384 20.63084622 197.02506813 22.89958294 193.80836487 24.50793457 C191.17460026 24.61013899 188.56702027 24.65131505 185.93280029 24.64837646 C184.6982124 24.65283315 184.6982124 24.65283315 183.43868333 24.65737987 C180.66500909 24.66609096 177.8913779 24.66757714 175.11769104 24.66906738 C173.1353852 24.67369386 171.15308026 24.67871829 169.17077637 24.68411255 C163.77403732 24.69725512 158.37731072 24.70368514 152.98055816 24.70812321 C149.61121626 24.71105098 146.24187779 24.71515523 142.87253761 24.71962738 C132.33744357 24.73330729 121.80235732 24.74297149 111.26725501 24.74682927 C99.09347697 24.75131119 86.91981114 24.76886326 74.74606723 24.79782987 C65.34475033 24.81942547 55.94346506 24.82953242 46.54212362 24.83087039 C40.92319227 24.83191995 35.30436634 24.83785987 29.68546104 24.85569 C24.40038718 24.87213398 19.11549838 24.87434406 13.8304081 24.86555099 C11.88937002 24.86477864 9.94832215 24.8691493 8.00730896 24.87900925 C5.35961071 24.89167135 2.71257358 24.88588331 0.06488037 24.87542725 C-0.70516274 24.88348365 -1.47520585 24.89154006 -2.2685836 24.89984059 C-6.7605712 24.85828692 -9.61354341 24.26779952 -13.19163513 21.50793457 C-16.3611871 17.57331833 -16.72512311 14.4871557 -16.19163513 9.50793457 C-12.87420195 2.00005948 -7.85075738 -0.09175956 0 0 Z " fill="#151B1C" transform="translate(633.1916351318359,441.4920654296875)"/>
<path d="M0 0 C7.2120179 5.23057724 11.79710036 10.69204199 15 19 C15.433125 20.0725 15.86625 21.145 16.3125 22.25 C18.52326288 34.3087066 17.64141499 46.99916171 10.75 57.375 C4.62076934 65.3970813 -1.869567 70.35219265 -12 72 C-24.02642359 72.92206972 -33.96920036 71.88752326 -43.875 64.3125 C-52.28361666 56.27304212 -56.02400654 45.35941227 -56.375 33.9375 C-56.00849087 22.10230935 -51.3326585 11.8134021 -42.75 3.625 C-31.43750015 -5.61198335 -12.77613333 -8.27215614 0 0 Z " fill="#FEFBFB" transform="translate(667,771)"/>
<path d="M0 0 C6.6 0 13.2 0 20 0 C24.46527744 15.56081532 28.26746098 31.25117694 32 47 C32.13558823 46.45542648 32.27117645 45.91085297 32.41087341 45.34977722 C33.82075396 39.68815244 35.232283 34.02694051 36.64477539 28.3659668 C37.1718925 26.25246583 37.69858743 24.13885952 38.22485352 22.02514648 C38.98082617 18.9891432 39.73831011 15.95352045 40.49609375 12.91796875 C40.73154404 11.97100632 40.96699432 11.02404388 41.20957947 10.04838562 C41.42973221 9.16769913 41.64988495 8.28701263 41.87670898 7.37963867 C42.06990219 6.60464523 42.2630954 5.82965179 42.46214294 5.03117371 C42.91104075 3.3359474 43.44544599 1.66366202 44 0 C50.27 0 56.54 0 63 0 C66.96 15.18 70.92 30.36 75 46 C78.05217301 34.65174208 78.05217301 34.65174208 80.88671875 23.26171875 C81.3343457 21.38516602 81.3343457 21.38516602 81.79101562 19.47070312 C82.2454713 17.55288036 82.69990523 15.63505233 83.15356445 13.71704102 C83.6042542 11.81478522 84.05793559 9.91323899 84.51171875 8.01171875 C84.77428467 6.90272217 85.03685059 5.79372559 85.30737305 4.65112305 C86 2 86 2 87 0 C93.27 0 99.54 0 106 0 C102.49283188 15.46588827 98.37930099 30.75266564 94.25 46.0625 C93.54503205 48.6827974 92.84086597 51.30331007 92.13671875 53.92382812 C90.42724805 60.28330047 88.71453208 66.64189044 87 73 C80.4 73 73.8 73 67 73 C62.07918358 56.39785343 57.45140088 39.73372366 53 23 C52.8518837 23.61165512 52.7037674 24.22331024 52.55116272 24.85350037 C51.01436793 31.19675093 49.47263574 37.53878651 47.92797852 43.88012695 C47.35150404 46.24960778 46.77630629 48.61939958 46.20239258 50.98950195 C45.37913944 54.38835121 44.55136088 57.78607015 43.72265625 61.18359375 C43.46533218 62.25024765 43.20800812 63.31690155 42.94288635 64.4158783 C42.70271286 65.39681961 42.46253937 66.37776093 42.21508789 67.38842773 C42.00412979 68.25668686 41.79317169 69.12494598 41.57582092 70.01951599 C41 72 41 72 40 73 C38.58429877 73.08651611 37.164405 73.10704904 35.74609375 73.09765625 C34.89208984 73.09443359 34.03808594 73.09121094 33.15820312 73.08789062 C32.26037109 73.07951172 31.36253906 73.07113281 30.4375 73.0625 C29.53580078 73.05798828 28.63410156 73.05347656 27.70507812 73.04882812 C25.46998366 73.03700223 23.23503507 73.01968245 21 73 C18.52459726 65.77884345 16.36649723 58.4936912 14.27734375 51.15234375 C13.93119522 49.94107315 13.58504669 48.72980255 13.22840881 47.48182678 C12.50052157 44.93305627 11.77339535 42.38408432 11.04760742 39.8347168 C10.12309484 36.58756623 9.19565155 33.34126179 8.26724911 30.09522152 C7.37339721 26.96882355 6.48168291 23.84181636 5.58984375 20.71484375 C5.25959702 19.55943588 4.92935028 18.40402802 4.58909607 17.21360779 C4.27859818 16.12209915 3.96810028 15.03059052 3.64819336 13.90600586 C3.24207069 12.48112099 3.24207069 12.48112099 2.82774353 11.02745056 C1.82694495 7.36705563 0.92036082 3.6814433 0 0 Z " fill="#FEFBFB" transform="translate(302,769)"/>
<path d="M0 0 C1.00182541 -0.00445668 1.00182541 -0.00445668 2.02388972 -0.0090034 C4.272424 -0.01770764 6.52090514 -0.0192001 8.76945496 -0.02069092 C10.37738153 -0.0253179 11.98530701 -0.03034239 13.5932312 -0.03573608 C17.96934156 -0.04887422 22.34543657 -0.05530786 26.72156358 -0.05974674 C29.45436896 -0.06267536 32.18717011 -0.06677978 34.91997337 -0.07125092 C43.46668981 -0.08492995 52.01339664 -0.09459445 60.56012326 -0.09845281 C70.43261202 -0.10293386 80.30496234 -0.12048223 90.17740899 -0.1494534 C97.8037942 -0.17105795 105.43014043 -0.18115644 113.05655593 -0.18249393 C117.61356178 -0.18354289 122.17043758 -0.18947003 126.72741127 -0.20731354 C131.01443478 -0.22377291 135.30123019 -0.22596016 139.588274 -0.21717453 C141.16165019 -0.21640299 142.73503853 -0.22076226 144.30838394 -0.23063278 C146.45691972 -0.24332106 148.60464381 -0.23749322 150.75317383 -0.22705078 C152.55645252 -0.22925062 152.55645252 -0.22925062 154.39616108 -0.2314949 C157.90968247 0.18063016 159.76104759 1.02021259 162.56706238 3.14044189 C165.18231567 7.19859355 166.26830986 10.33188776 165.56706238 15.14044189 C163.22500746 19.56432341 161.04815016 21.96288681 156.56706238 24.14044189 C153.43856907 24.52075863 153.43856907 24.52075863 149.85601807 24.52812195 C149.19444385 24.53350749 148.53286964 24.53889302 147.85124773 24.54444176 C145.64182626 24.55871114 143.43300479 24.55162053 141.22355652 24.54449463 C139.63651041 24.55019876 138.0494684 24.55716319 136.46243286 24.56529236 C132.15661911 24.58323432 127.85100903 24.58205344 123.54516912 24.57634997 C119.94919887 24.57325959 116.35326784 24.57934891 112.75730318 24.58538872 C104.27336487 24.59943577 95.78952725 24.59787119 87.30558777 24.58648682 C78.55600971 24.57500536 69.80673816 24.58908125 61.05720049 24.61588329 C53.54197184 24.63804156 46.0268394 24.64467739 38.51158041 24.63880688 C34.02443092 24.6354364 29.53747791 24.63785837 25.05035591 24.65505791 C20.8305051 24.67052703 16.61110827 24.66657209 12.39127541 24.64775276 C10.84412472 24.64406675 9.29694041 24.64717576 7.74982071 24.65763855 C5.63438838 24.67085058 3.52045856 24.65930182 1.40509033 24.64164734 C0.22247148 24.64143806 -0.96014738 24.64122877 -2.17860317 24.64101315 C-6.15591952 24.02923515 -8.30968146 22.63681932 -11.43293762 20.14044189 C-14.26086556 15.89854999 -14.21416048 12.12170446 -13.43293762 7.14044189 C-10.15767907 1.05260071 -6.54798898 0.01621746 0 0 Z " fill="#171B1C" transform="translate(669.4329376220703,224.85955810546875)"/>
<path d="M0 0 C0.66142535 -0.00382555 1.32285071 -0.00765109 2.00431925 -0.01159257 C4.21907074 -0.02190552 6.43356215 -0.01793375 8.64833069 -0.01396179 C10.23684936 -0.01830921 11.82536594 -0.02349246 13.41387939 -0.02944946 C17.72791386 -0.04284736 22.04186075 -0.04341727 26.35591197 -0.04088616 C29.95688921 -0.03981701 33.55784868 -0.04469838 37.15882212 -0.04949158 C45.65371086 -0.06058946 54.14855539 -0.06102257 62.64344788 -0.05497742 C71.40830895 -0.04893608 80.17300957 -0.06125203 88.93784326 -0.08254749 C96.46236633 -0.1001575 103.98683829 -0.1061658 111.51138121 -0.10290974 C116.00574929 -0.10109582 120.5000029 -0.10374396 124.99435234 -0.11762428 C129.22068043 -0.1301883 133.44675816 -0.12827213 137.67308235 -0.11521339 C139.22387908 -0.11284496 140.77469335 -0.11559187 142.32546997 -0.12383652 C144.44326401 -0.13428355 146.56021483 -0.12622077 148.67797852 -0.11352539 C150.45523772 -0.113777 150.45523772 -0.113777 152.26840115 -0.1140337 C157.11728305 0.46572881 159.59140945 2.34290483 162.77748108 5.94819641 C164.83583577 10.14407328 164.82827692 12.85616785 163.40248108 17.26069641 C161.18161515 20.78344927 159.26316581 22.76084718 155.40248108 24.26069641 C152.3970356 24.51796532 152.3970356 24.51796532 148.81169128 24.52812195 C148.1509715 24.53265306 147.49025171 24.53718417 146.80951011 24.54185259 C144.59710237 24.55450575 142.38494051 24.55287567 140.17250061 24.55122375 C138.58560367 24.55720844 136.99870965 24.56401385 135.41181946 24.57157898 C131.101858 24.5892522 126.79197595 24.59393491 122.48198175 24.59521055 C118.88358276 24.59710985 115.28520225 24.60446773 111.68681037 24.61155474 C103.19667936 24.62784127 94.70659076 24.63272345 86.21644592 24.63130188 C77.45951696 24.63010031 68.7028344 24.6512046 59.94596779 24.68278921 C52.42652322 24.70894378 44.90715916 24.71966952 37.38766944 24.71839106 C32.89713816 24.71788119 28.40682584 24.7235781 23.91633987 24.74474716 C19.69241807 24.76411587 15.46892442 24.76426357 11.24498749 24.7497139 C9.69621785 24.74762299 8.14742151 24.75234352 6.59869766 24.76443481 C4.48104239 24.7798949 2.36486214 24.77057652 0.24723816 24.75517273 C-1.52863835 24.75680703 -1.52863835 24.75680703 -3.34039116 24.75847435 C-7.32114415 24.15010674 -9.47254684 22.75932209 -12.59751892 20.26069641 C-15.42634872 16.01745171 -15.25019893 12.24335112 -14.59751892 7.26069641 C-10.96015839 1.02522121 -6.92604737 0.01200399 0 0 Z " fill="#151B1C" transform="translate(670.5975189208984,288.7393035888672)"/>
<path d="M0 0 C6.27 0 12.54 0 19 0 C19.495 18.315 19.495 18.315 20 37 C21.65 35.35 23.3 33.7 25 32 C31.28817805 26.82150043 38.17126807 27.51395899 46 28 C51.68681295 29.19722378 56.79394207 31.81015948 60.15625 36.671875 C63.24073826 41.8273768 64.1268615 45.673494 64.11352539 51.59472656 C64.11341209 53.27601654 64.11341209 53.27601654 64.11329651 54.99127197 C64.10813522 56.19555847 64.10297394 57.39984497 64.09765625 58.640625 C64.0962413 59.87794373 64.09482635 61.11526245 64.09336853 62.39007568 C64.0887211 65.67144941 64.07974347 68.95277373 64.06866455 72.23413086 C64.0584152 75.58577011 64.05394859 78.93741148 64.04882812 82.2890625 C64.03780024 88.8593968 64.02053617 95.42968881 64 102 C57.73 102 51.46 102 45 102 C44.970271 99.76730347 44.970271 99.76730347 44.93994141 97.48950195 C44.86383138 91.96361461 44.77512182 86.43798873 44.68261719 80.91235352 C44.64434985 78.52145553 44.60949307 76.13050041 44.578125 73.73950195 C44.53242628 70.30138744 44.47443878 66.86366548 44.4140625 63.42578125 C44.40251129 62.35789871 44.39096008 61.29001617 44.37905884 60.18977356 C44.35918915 59.18911362 44.33931946 58.18845367 44.31884766 57.1574707 C44.30552399 56.28032913 44.29220032 55.40318756 44.2784729 54.49946594 C43.85799273 50.72539723 42.90837054 47.89274266 40.18359375 45.21484375 C36.27674363 43.04126524 32.33362672 43.40201579 28 44 C24.75948927 45.51683481 23.50393038 46.75701019 22.1603241 50.07113647 C20.20622106 56.34267832 19.53422917 62.05204667 19.48828125 68.6015625 C19.47033005 69.564039 19.45237885 70.5265155 19.43388367 71.51815796 C19.38025521 74.55372908 19.34603867 77.58914737 19.3125 80.625 C19.27928494 82.69923981 19.24479149 84.77345957 19.20898438 86.84765625 C19.1221801 91.89845371 19.0617064 96.9485861 19 102 C12.73 102 6.46 102 0 102 C0 68.34 0 34.68 0 0 Z " fill="#FEFDFD" transform="translate(824,739)"/>
<path d="M0 0 C9.42661909 5.77315795 14.33623741 13.7457079 17.51171875 24.30859375 C18.33569003 29.58200996 18.13671875 34.97119296 18.13671875 40.30859375 C1.96671875 40.30859375 -14.20328125 40.30859375 -30.86328125 40.30859375 C-28.42773424 50.3353058 -28.42773424 50.3353058 -21.55078125 56.62109375 C-16.87394224 57.81749443 -13.21709064 57.81295411 -8.67578125 56.12109375 C-5.72707187 54.51239058 -5.72707187 54.51239058 -4.296875 51.71484375 C-1.54300704 48.99191813 -1.00663172 48.94514899 2.68359375 48.8203125 C4.41864231 48.85342411 6.15335046 48.91288183 7.88671875 48.99609375 C9.21896484 49.02993164 9.21896484 49.02993164 10.578125 49.06445312 C12.76604687 49.12326823 14.95051546 49.20538107 17.13671875 49.30859375 C14.61984138 57.84861905 11.30060862 64.05696894 3.53125 68.94921875 C-5.59911179 73.64252141 -14.73093243 74.82650388 -24.91015625 72.66015625 C-33.65220816 69.77083401 -41.32097136 64.73767957 -45.7824707 56.50732422 C-49.18754768 49.58025775 -50.39418977 43.11681555 -50.30078125 35.43359375 C-50.29320801 34.55735352 -50.28563477 33.68111328 -50.27783203 32.77832031 C-49.96877327 20.60997737 -45.68965289 12.00549047 -37.05078125 3.55859375 C-26.37656857 -3.97614461 -12.09785706 -5.93596042 0 0 Z " fill="#FEFAFA" transform="translate(282.86328125,769.69140625)"/>
<path d="M0 0 C1.32004028 0.01244751 1.32004028 0.01244751 2.66674805 0.02514648 C11.3456504 0.25018769 18.51399036 1.67785744 25.125 7.625 C29.07497002 12.02124067 32.1875 17.44246816 32.1875 23.4375 C25.5875 23.4375 18.9875 23.4375 12.1875 23.4375 C11.5275 21.4575 10.8675 19.4775 10.1875 17.4375 C4.86084035 14.64734494 -0.96532807 14.83171874 -6.75 16.0625 C-9.15630854 17.33616931 -9.15630854 17.33616931 -9.625 20.5625 C-9.7178125 21.985625 -9.7178125 21.985625 -9.8125 23.4375 C-3.03476123 26.89031031 3.79657636 28.76004473 11.18286133 30.42260742 C19.72585741 32.4780717 26.0831389 36.23134315 31.1875 43.4375 C34.10025725 48.84690633 33.7211171 54.14418607 32.125 59.9375 C29.93285544 65.89485581 26.31296291 69.85553493 20.6484375 72.72265625 C9.66281522 77.24328843 -3.47513524 78.64742384 -14.9375 74.875 C-21.22345545 72.1381917 -26.03369638 68.19177657 -29.75 62.4375 C-30.8125 59.4375 -30.8125 59.4375 -31.8125 52.4375 C-25.5425 52.4375 -19.2725 52.4375 -12.8125 52.4375 C-11.8225 54.4175 -10.8325 56.3975 -9.8125 58.4375 C-6.48735135 61.01300576 -2.90193124 60.73700393 1.1875 60.75 C2.404375 60.76675781 3.62125 60.78351562 4.875 60.80078125 C8.37288322 60.41716906 9.81678236 60.00773348 12.1875 57.4375 C12.52130814 53.81186186 12.52130814 53.81186186 12.1875 50.4375 C7.02959915 48.52716635 1.95068809 47.14406605 -3.4296875 46.05004883 C-12.19871643 44.25581207 -19.80077841 42.55208625 -26.25 35.9375 C-29.86215049 30.15805922 -30.61855829 25.19598874 -29.8125 18.4375 C-27.95656769 11.88300487 -23.46255034 7.08418282 -17.8125 3.4375 C-11.94024644 0.5102081 -6.49819146 -0.07884497 0 0 Z " fill="#FEFBFB" transform="translate(444.8125,766.5625)"/>
<path d="M0 0 C0.8144458 -0.00708481 1.6288916 -0.01416962 2.46801758 -0.02146912 C3.35280289 -0.0189917 4.2375882 -0.01651428 5.14918518 -0.01396179 C6.55715866 -0.02162819 6.55715866 -0.02162819 7.99357605 -0.02944946 C11.09702425 -0.04335186 14.20025055 -0.04238822 17.3037262 -0.04008484 C19.46079593 -0.04397134 21.61786489 -0.04830592 23.77493286 -0.05307007 C28.29668152 -0.06053362 32.81835211 -0.06023995 37.34010315 -0.05497742 C43.13520477 -0.04918191 48.92998688 -0.06611526 54.72503567 -0.08932209 C59.17999135 -0.10405212 63.63486994 -0.10493213 68.08984566 -0.10181236 C70.22648311 -0.10232592 72.36312484 -0.10757004 74.49973869 -0.11762428 C77.48726558 -0.12995733 80.47416832 -0.12321567 83.46168518 -0.11161804 C84.7858268 -0.12308365 84.7858268 -0.12308365 86.13671875 -0.13478088 C92.31407932 -0.0817627 95.61458871 1.12707396 100.18263245 5.44819641 C102.36782618 9.09018597 102.67132073 12.16662429 101.87013245 16.26069641 C99.7652524 20.32010792 98.09502651 22.56219829 93.87013245 24.26069641 C91.86140537 24.515172 91.86140537 24.515172 89.70230103 24.52139282 C88.87944107 24.52847763 88.05658112 24.53556244 87.20878601 24.54286194 C86.31464996 24.54038452 85.42051392 24.5379071 84.49928284 24.53535461 C83.55088028 24.54046555 82.60247772 24.54557648 81.62533569 24.55084229 C78.48942255 24.56474547 75.353729 24.56378098 72.2177887 24.56147766 C70.03829873 24.56536412 67.85880952 24.56969868 65.67932129 24.57446289 C61.11049444 24.58192662 56.54174486 24.58163264 51.97291565 24.57637024 C46.11728115 24.5705747 40.26196286 24.5875081 34.40638065 24.61071491 C29.90510203 24.62544444 25.4038997 24.62632502 20.90260124 24.62320518 C18.74363516 24.62371876 16.58466485 24.62896334 14.42572212 24.63901711 C11.40706436 24.65134918 8.38902441 24.64460905 5.37037659 24.63301086 C4.03220886 24.64447647 4.03220886 24.64447647 2.66700745 24.65617371 C-2.10617052 24.61562462 -5.23904193 24.33463078 -9.12986755 21.26069641 C-11.89855856 18.34660369 -12.56121178 16.31829561 -12.56736755 12.32319641 C-12.45810448 8.7903569 -12.20481928 7.38918509 -10.37986755 4.26069641 C-7.06278954 1.31218262 -4.44953277 0.01295408 0 0 Z " fill="#151B1C" transform="translate(668.1298675537109,352.7393035888672)"/>
<path d="M0 0 C6.27 0 12.54 0 19 0 C19.33 3.3 19.66 6.6 20 10 C20.45890625 9.44570313 20.9178125 8.89140625 21.390625 8.3203125 C22.00421875 7.59585938 22.6178125 6.87140625 23.25 6.125 C23.85328125 5.40570312 24.4565625 4.68640625 25.078125 3.9453125 C27.98568042 1.00229909 29.86274434 0.07365645 34.015625 -0.1953125 C37.01041667 -0.13020833 40.00520833 -0.06510417 43 0 C43 6.27 43 12.54 43 19 C40.7415625 18.9071875 40.7415625 18.9071875 38.4375 18.8125 C33.42615049 18.82667638 30.33988573 19.48286628 26 22 C22.30541609 25.88903569 20.90375592 28.9741758 20.79467773 34.2878418 C20.77473251 35.14850754 20.75478729 36.00917328 20.73423767 36.8959198 C20.70916893 38.28355278 20.70916893 38.28355278 20.68359375 39.69921875 C20.66281265 40.64940384 20.64203156 41.59958893 20.62062073 42.5785675 C20.55521948 45.61480456 20.49628396 48.65112831 20.4375 51.6875 C20.39430583 53.74545169 20.35069124 55.80339459 20.30664062 57.86132812 C20.19875631 62.9074645 20.09961263 67.95366639 20 73 C13.4 73 6.8 73 0 73 C0 48.91 0 24.82 0 0 Z " fill="#FEFDFC" transform="translate(694,768)"/>
<path d="M0 0 C5.04936325 2.57058493 7.96851572 5.40982836 10.0546875 10.6484375 C12.50207729 19.32554675 12.15094533 29.81948746 8.27734375 38.0078125 C5.67157107 42.07186163 2.62316811 44.45894396 -2 46 C-7.35219303 46.34530278 -10.66997016 46.48807959 -15 43 C-20.70841135 37.29158865 -22.16936017 30.41252461 -22.4375 22.5625 C-22.239081 14.85121614 -20.40430628 8.87343921 -15.4375 2.9375 C-10.80682016 -0.7432968 -5.68623313 -0.64656545 0 0 Z " fill="#FE191B" transform="translate(653,782)"/>
<path d="M0 0 C4.63351228 1.61165645 6.11406987 4.45596999 8.15332031 8.66845703 C9.62815888 12.7297916 9.53845446 16.66159012 9.4375 20.9375 C9.44458984 21.77990234 9.45167969 22.62230469 9.45898438 23.49023438 C9.39699618 29.68428578 8.84500748 36.80809874 4.54833984 41.62866211 C0.00194996 45.4990883 -2.96094053 46.3037971 -8.74609375 46.2109375 C-11.91423899 45.91443864 -13.61562123 45.10386362 -16 43 C-20.07638681 37.16245578 -19.44313236 30.82837688 -19.375 24 C-19.38660156 22.83726562 -19.39820313 21.67453125 -19.41015625 20.4765625 C-19.3836793 12.76294382 -18.69861476 8.02771412 -13.4375 2.125 C-9.36832664 -1.02860935 -4.90277165 -0.72268661 0 0 Z " fill="#FE191B" transform="translate(784,782)"/>
<path d="M0 0 C1.25668488 0.00848969 2.51336975 0.01697937 3.80813599 0.02572632 C7.13327241 0.05356178 10.45589469 0.10735941 13.78033447 0.1739502 C17.17885726 0.23556958 20.5776409 0.26278274 23.9765625 0.29296875 C30.63350239 0.35904221 37.28926243 0.4593879 43.9453125 0.5859375 C42.9553125 1.2459375 41.9653125 1.9059375 40.9453125 2.5859375 C40.9453125 3.9059375 40.9453125 5.2259375 40.9453125 6.5859375 C40.38171524 6.56293579 39.81811798 6.53993408 39.23744202 6.51623535 C33.28161685 6.28961905 27.33122994 6.18043418 21.37133789 6.13427734 C19.15881486 6.10247945 16.94648652 6.04238536 14.7355957 5.95166016 C3.46186013 5.50734985 -5.7607689 5.32846635 -14.55079651 13.11914062 C-17.29277847 15.84892242 -19.87963369 18.66331104 -22.37461853 21.62007141 C-24.80350559 24.46213729 -27.44569733 27.03439616 -30.1171875 29.6484375 C-30.97183594 30.51339844 -31.82648438 31.37835937 -32.70703125 32.26953125 C-35.40025446 34.92690456 -38.21673574 37.38948069 -41.09375 39.84375 C-44.14560738 42.55516114 -46.96613516 45.48930897 -49.83203125 48.39453125 C-52.48379976 51.00901655 -55.27000157 53.42323297 -58.09765625 55.84375 C-60.13604316 57.6583619 -62.0289912 59.56560604 -63.9296875 61.5234375 C-68.30134688 65.97347325 -73.11925844 69.78322986 -78.0546875 73.5859375 C-78.0546875 69.27825355 -75.45569494 67.46064604 -72.6171875 64.5234375 C-71.50336826 63.34556058 -70.39009106 62.16717088 -69.27734375 60.98828125 C-68.72578613 60.40804199 -68.17422852 59.82780273 -67.60595703 59.22998047 C-65.54917991 57.0501981 -63.54911025 54.82277627 -61.5546875 52.5859375 C-57.6259712 48.20336228 -53.64411543 43.87262947 -49.64550781 39.55395508 C-47.12875856 36.8352099 -44.61796848 34.11168031 -42.125 31.37109375 C-37.49063818 26.27886017 -32.80075658 21.28309117 -27.890625 16.453125 C-25.43214497 13.9527985 -23.15394411 11.31754557 -20.890625 8.640625 C-20.28476563 7.96257813 -19.67890625 7.28453125 -19.0546875 6.5859375 C-18.29607422 5.56564453 -17.53746094 4.54535156 -16.75585938 3.49414062 C-12.09342116 -1.11119615 -6.15435174 -0.15675299 0 0 Z " fill="#B50E13" transform="translate(233.0546875,569.4140625)"/>
<path d="M0 0 C1.51223648 0.00666183 1.51223648 0.00666183 3.05502319 0.01345825 C4.19605499 0.01360931 5.33708679 0.01376038 6.51269531 0.01391602 C8.36741959 0.02939987 8.36741959 0.02939987 10.25961304 0.04519653 C12.15313004 0.04944138 12.15313004 0.04944138 14.0848999 0.05377197 C17.44201998 0.06308772 20.79886965 0.08106068 24.15591431 0.10317993 C27.58108176 0.12363353 31.00627713 0.13277264 34.43148804 0.14285278 C41.15291724 0.16494445 47.87421827 0.19844527 54.59555054 0.24050903 C53.60555054 0.90050903 52.61555054 1.56050903 51.59555054 2.24050903 C51.59555054 3.56050903 51.59555054 4.88050903 51.59555054 6.24050903 C51.03195328 6.21750732 50.46835602 6.19450562 49.88768005 6.17080688 C43.93185488 5.94419058 37.98146798 5.83500571 32.02157593 5.78884888 C29.8090529 5.75705098 27.59672456 5.6969569 25.38583374 5.60623169 C13.94585715 5.15536964 4.85796816 5.00623052 -4.00126648 12.97207642 C-6.73576243 15.72824712 -9.32970261 18.56273981 -11.78752136 21.56851196 C-13.52745182 23.36770058 -15.11845984 24.25867931 -17.40444946 25.24050903 C-12.73922095 19.61831057 -7.89185541 14.08040108 -2.40444946 9.24050903 C-1.74444946 9.24050903 -1.08444946 9.24050903 -0.40444946 9.24050903 C-1.06444946 7.92050903 -1.72444946 6.60050903 -2.40444946 5.24050903 C-3.72444946 5.57050903 -5.04444946 5.90050903 -6.40444946 6.24050903 C-3.66320714 0.36641835 -3.66320714 0.36641835 0 0 Z " fill="#F70C11" transform="translate(222.40444946289063,569.7594909667969)"/>
<path d="M0 0 C4.94693352 2.33855039 7.11924899 4.88017779 9 10 C9 11.65 9 13.3 9 15 C-0.57 15 -10.14 15 -20 15 C-16.44932592 4.34797777 -16.44932592 4.34797777 -12.09375 1.03515625 C-8.11087877 -0.93398718 -4.29628671 -0.82239152 0 0 Z " fill="#FE1619" transform="translate(272,782)"/>
<path d="M0 0 C2.8100346 1.79363911 4.50940468 3.01880935 6 6 C6.42071592 9.05920574 6.48514117 11.9467746 6 15 C3.10799895 18.65305395 0.88959163 20.74232841 -3.75 21.375 C-8.2753858 20.8528401 -9.7671103 19.15770622 -13 16 C-14.60086627 12.79826746 -14.49917089 9.47422941 -14 6 C-10.32759145 0.24655994 -6.71744997 -0.96515086 0 0 Z " fill="#171B1C" transform="translate(480,214)"/>
<path d="M0 0 C3.33014331 2.01065256 5.36952397 3.26268827 6.703125 6.9375 C7.31230038 10.43363699 7.20699769 12.50974232 5.8125 15.8125 C2.83433281 19.40683971 1.31300919 20.83288974 -3.4375 21.4375 C-7.59776436 20.92659034 -9.10659458 19.97607415 -12 17 C-14.05124631 14.2960844 -14.00081224 13.02233672 -13.875 9.5625 C-12.92221101 5.68328769 -11.80486172 3.80486172 -9 1 C-5.61670875 -0.12776375 -3.54843366 -0.41746278 0 0 Z " fill="#161A1B" transform="translate(415,182)"/>
<path d="M0 0 C2.82275936 1.25455972 4.46288541 2.28384722 6.3125 4.75 C7.32815881 8.0739743 7.41796486 10.53686262 7 14 C5.21523759 16.97239241 3.14791945 19.42604027 0 21 C-5.26883876 21.59873168 -7.8846468 20.25400021 -12 17 C-13.72869779 13.54260443 -13.48966895 9.78024432 -13 6 C-9.39669759 0.23471614 -6.65938858 -0.45148397 0 0 Z " fill="#161A1B" transform="translate(499,279)"/>
<path d="M0 0 C3.37021602 2.0970233 5.89129539 4.11953387 7 8 C6.92253683 12.26047438 6.42183291 14.42928489 3.875 17.875 C0.36287015 20.47092206 -1.63666325 21.07654977 -6 21 C-9.16483536 19.38772538 -11.27108725 17.99397194 -13.375 15.125 C-14.25151896 12.14483554 -14.43422592 10.10161374 -14 7 C-10.25797692 1.00441656 -7.00630173 -0.59375438 0 0 Z " fill="#161A1B" transform="translate(282,279)"/>
<path d="M0 0 C2.8100346 1.79363911 4.50940468 3.01880935 6 6 C6.45487581 10.54875813 6.71689456 13.67392638 3.9375 17.4375 C0.43344463 20.49422915 -1.37720728 21.08254987 -6 21 C-9.64732163 19.42502021 -12.17551854 17.55293758 -14 14 C-14.53198011 9.212179 -14.72509014 7.13597455 -12.125 3.0625 C-8.49059499 -0.46501074 -4.90782663 -0.7051475 0 0 Z " fill="#161B1C" transform="translate(472,337)"/>
<path d="M0 0 C2.75569447 2.18159145 4.43588747 3.87177494 6 7 C6.43964729 10.86889612 6.12635224 12.75665494 4.3125 16.25 C1.8577962 19.16910722 0.69327563 20.20858379 -3 21 C-6.83349126 20.9201356 -8.68563774 20.21185283 -11.875 18.0625 C-14.49145154 14.2917316 -14.73524497 11.89395202 -14.47265625 7.3828125 C-14 5 -14 5 -12.0625 1.875 C-7.96645433 -0.63278306 -4.68747351 -1.08695038 0 0 Z " fill="#181A1B" transform="translate(308,219)"/>
<path d="M0 0 C0.87454834 0.00523682 1.74909668 0.01047363 2.65014648 0.01586914 C3.59438477 0.0190918 4.53862305 0.02231445 5.51147461 0.02563477 C6.50469727 0.03401367 7.49791992 0.04239258 8.52124023 0.05102539 C9.51833008 0.05553711 10.51541992 0.06004883 11.54272461 0.06469727 C14.01478872 0.07652532 16.48673541 0.0930069 18.95874023 0.11352539 C18.95874023 0.44352539 18.95874023 0.77352539 18.95874023 1.11352539 C12.35874023 1.11352539 5.75874023 1.11352539 -1.04125977 1.11352539 C-1.04125977 34.44352539 -1.04125977 67.77352539 -1.04125977 102.11352539 C5.55874023 102.11352539 12.15874023 102.11352539 18.95874023 102.11352539 C18.95874023 91.22352539 18.95874023 80.33352539 18.95874023 69.11352539 C20.27874023 70.10352539 21.59874023 71.09352539 22.95874023 72.11352539 C22.62874023 72.77352539 22.29874023 73.43352539 21.95874023 74.11352539 C21.81622944 76.20582627 21.73241723 78.30225246 21.67749023 80.39868164 C21.64010742 81.65100586 21.60272461 82.90333008 21.56420898 84.19360352 C21.49379311 86.85245495 21.42348091 89.51130913 21.35327148 92.17016602 C21.31588867 93.42120117 21.27850586 94.67223633 21.23999023 95.96118164 C21.19455078 97.69380249 21.19455078 97.69380249 21.14819336 99.46142578 C20.95874023 102.11352539 20.95874023 102.11352539 19.95874023 103.11352539 C18.32401142 103.20052881 16.68559968 103.22053602 15.04858398 103.21118164 C14.05922852 103.20795898 13.06987305 103.20473633 12.05053711 103.20141602 C11.00961914 103.19303711 9.96870117 103.1846582 8.89624023 103.17602539 C7.85145508 103.17151367 6.80666992 103.16700195 5.73022461 103.16235352 C3.13967364 103.15052452 0.54923465 103.13404228 -2.04125977 103.11352539 C-2.1732303 92.91514196 -2.30371441 82.71674062 -2.43241119 72.51831532 C-2.49224425 67.78043006 -2.5525487 63.04255188 -2.61401367 58.3046875 C-3.08334525 22.06790697 -3.08334525 22.06790697 -3.13500977 9.06274414 C-3.14473816 7.81325737 -3.14473816 7.81325737 -3.15466309 6.53852844 C-3.15616605 4.72979967 -3.1059187 2.9210987 -3.04125977 1.11352539 C-2.04125977 0.11352539 -2.04125977 0.11352539 0 0 Z " fill="#FE0505" transform="translate(746.041259765625,766.886474609375)"/>
<path d="M0 0 C0.66 0.33 1.32 0.66 2 1 C2.41796875 3.5859375 2.41796875 3.5859375 2 7 C0.09643051 9.56760536 -2.26953457 11.5499023 -4.6875 13.625 C-6.06136752 14.85007024 -7.43506208 16.07533447 -8.80859375 17.30078125 C-9.50710449 17.9138916 -10.20561523 18.52700195 -10.92529297 19.15869141 C-12.91148588 20.92144345 -14.85462362 22.71960288 -16.78515625 24.54296875 C-17.37014893 25.09452637 -17.9551416 25.64608398 -18.55786133 26.21435547 C-19.66481178 27.25981755 -20.7701847 28.30695311 -21.8737793 29.35595703 C-24.25209412 31.57234892 -25.87375826 32.95791942 -29 34 C-27.39605993 30.13221309 -24.77363988 27.37353644 -21.9375 24.375 C-20.94102014 23.30504697 -19.94493207 22.23472893 -18.94921875 21.1640625 C-18.45212402 20.63200195 -17.9550293 20.09994141 -17.44287109 19.55175781 C-11.49564979 13.1557276 -5.72729654 6.59283654 0 0 Z " fill="#721013" transform="translate(183,609)"/>
<path d="M0 0 C1.63001953 0.01353516 1.63001953 0.01353516 3.29296875 0.02734375 C4.12441406 0.03894531 4.95585937 0.05054688 5.8125 0.0625 C5.8125 2.3725 5.8125 4.6825 5.8125 7.0625 C-14.9775 7.0625 -35.7675 7.0625 -57.1875 7.0625 C-57.1875 6.7325 -57.1875 6.4025 -57.1875 6.0625 C-41.6775 5.7325 -26.1675 5.4025 -10.1875 5.0625 C-9.8575 3.7425 -9.5275 2.4225 -9.1875 1.0625 C-5.90230525 -0.03256492 -3.45086585 -0.03710608 0 0 Z " fill="#5D1314" transform="translate(283.1875,569.9375)"/>
<path d="M0 0 C0.33 0 0.66 0 1 0 C1 24.42 1 48.84 1 74 C0.67 74 0.34 74 0 74 C-0.33 53.21 -0.66 32.42 -1 11 C-1.66 12.32 -2.32 13.64 -3 15 C-4.28497537 11.14507389 -3.4052209 9.59653164 -2.0625 5.8125 C-1.68222656 4.72582031 -1.30195312 3.63914062 -0.91015625 2.51953125 C-0.60980469 1.68808594 -0.30945313 0.85664062 0 0 Z " fill="#FE0000" transform="translate(579,768)"/>
<path d="M0 0 C1.72274487 2.58411731 2.68895522 4.54902656 3.6875 7.4375 C3.95949219 8.19933594 4.23148438 8.96117187 4.51171875 9.74609375 C5.04729142 12.21829721 4.80445309 13.62983284 4 16 C3.34 14.02 2.68 12.04 2 10 C1.67 30.79 1.34 51.58 1 73 C0.67 73 0.34 73 0 73 C0 48.91 0 24.82 0 0 Z " fill="#FE0000" transform="translate(511,769)"/>
<path d="M0 0 C0.33 0 0.66 0 1 0 C1 21.45 1 42.9 1 65 C0.01 65.495 0.01 65.495 -1 66 C-1.66 64.35 -2.32 62.7 -3 61 C-2.01 61 -1.02 61 0 61 C0 40.87 0 20.74 0 0 Z " fill="#FE2326" transform="translate(198,742)"/>
<path d="M0 0 C0.99 0 1.98 0 3 0 C1.67420617 6.02550435 -1.49909542 8.87672567 -5.9375 12.8125 C-6.57107422 13.39708984 -7.20464844 13.98167969 -7.85742188 14.58398438 C-12.56334421 18.85444807 -12.56334421 18.85444807 -16 20 C-14.36117794 15.96597646 -11.51348168 13.10872646 -8.5625 10 C-4.74451264 5.98648061 -4.74451264 5.98648061 -1.33984375 1.625 C-0.89769531 1.08875 -0.45554688 0.5525 0 0 Z " fill="#501214" transform="translate(170,623)"/>
<path d="M0 0 C0.97582031 0.00902344 1.95164062 0.01804687 2.95703125 0.02734375 C4.06111328 0.04474609 4.06111328 0.04474609 5.1875 0.0625 C4.1975 0.7225 3.2075 1.3825 2.1875 2.0625 C2.1875 3.3825 2.1875 4.7025 2.1875 6.0625 C-2.7625 5.7325 -7.7125 5.4025 -12.8125 5.0625 C-12.1525 3.7425 -11.4925 2.4225 -10.8125 1.0625 C-7.24777597 -0.11342796 -3.72927808 -0.04493106 0 0 Z " fill="#BB0B10" transform="translate(271.8125,569.9375)"/>
<path d="M0 0 C1.32 0 2.64 0 4 0 C4.98046875 2.515625 4.98046875 2.515625 5 6 C2.82630391 9.00285407 0.09865378 11.32373435 -2.6875 13.75 C-3.42162109 14.42160156 -4.15574219 15.09320312 -4.91210938 15.78515625 C-8.14015296 18.69535272 -11.01712652 21.19338145 -15 23 C-10.33477149 17.37780154 -5.48740595 11.83989204 0 7 C0.66 7 1.32 7 2 7 C1.01 5.02 0.02 3.04 -1 1 C-0.67 0.67 -0.34 0.34 0 0 Z " fill="#DA0C12" transform="translate(220,572)"/>
<path d="M0 0 C0.33 1.32 0.66 2.64 1 4 C1.99 4.33 2.98 4.66 4 5 C1.56721456 6.50814743 -0.87066027 8.00664347 -3.3125 9.5 C-4.00279297 9.92925781 -4.69308594 10.35851562 -5.40429688 10.80078125 C-6.07138672 11.20683594 -6.73847656 11.61289062 -7.42578125 12.03125 C-8.03848877 12.40830078 -8.65119629 12.78535156 -9.2824707 13.17382812 C-11 14 -11 14 -14 14 C-9.38 9.38 -4.76 4.76 0 0 Z " fill="#F01317" transform="translate(388,510)"/>
<path d="M0 0 C0 0.33 0 0.66 0 1 C-1.2065625 1.185625 -1.2065625 1.185625 -2.4375 1.375 C-3.283125 1.58125 -4.12875 1.7875 -5 2 C-5.33 2.66 -5.66 3.32 -6 4 C-3.69 4.33 -1.38 4.66 1 5 C1 5.33 1 5.66 1 6 C-0.95803507 6.05389087 -2.91648909 6.09274217 -4.875 6.125 C-5.96554687 6.14820313 -7.05609375 6.17140625 -8.1796875 6.1953125 C-11 6 -11 6 -13 4 C-12.34 4 -11.68 4 -11 4 C-10.67 3.01 -10.34 2.02 -10 1 C-6.52674819 -0.1577506 -3.63932552 -0.06866652 0 0 Z " fill="#DA090F" transform="translate(266,570)"/>
<path d="M0 0 C-0.33 1.32 -0.66 2.64 -1 4 C-0.01 4.33 0.98 4.66 2 5 C-0.97 5 -3.94 5 -7 5 C-7.33 3.68 -7.66 2.36 -8 1 C-4.93251126 -0.86240388 -3.40254489 -1.2151946 0 0 Z " fill="#8A0D11" transform="translate(281,571)"/>
<path d="M0 0 C3.3 0 6.6 0 10 0 C10.33 0.99 10.66 1.98 11 3 C2.75 3 -5.5 3 -14 3 C-14 2.67 -14 2.34 -14 2 C-9.38 1.67 -4.76 1.34 0 1 C0 0.67 0 0.34 0 0 Z " fill="#43191B" transform="translate(390,112)"/>
<path d="M0 0 C1.17755859 -0.02126953 1.17755859 -0.02126953 2.37890625 -0.04296875 C4.4375 0.1875 4.4375 0.1875 6.4375 2.1875 C3.55334117 3.62957941 1.02028472 3.28144887 -2.1875 3.25 C-3.37601563 3.24097656 -4.56453125 3.23195313 -5.7890625 3.22265625 C-6.70429687 3.21105469 -7.61953125 3.19945312 -8.5625 3.1875 C-6.79918655 -0.33912691 -3.55147034 0.02925429 0 0 Z " fill="#FE2627" transform="translate(731.5625,785.8125)"/>
<path d="M0 0 C0.66 0.66 1.32 1.32 2 2 C-1.86757281 6.95532767 -6.18876004 10.96476648 -11 15 C-11 10.66825307 -8.34177417 8.77646347 -5.5 5.8125 C-4.97535156 5.25369141 -4.45070312 4.69488281 -3.91015625 4.11914062 C-2.61338387 2.73984636 -1.30753741 1.36909356 0 0 Z " fill="#990E12" transform="translate(196,595)"/>
<path d="M0 0 C0.33 0 0.66 0 1 0 C0.5547115 5.27315333 -0.08373163 10.01770224 -2 15 C-2.33 15 -2.66 15 -3 15 C-3.33 11.7 -3.66 8.4 -4 5 C-3.01 5.33 -2.02 5.66 -1 6 C-0.67 4.02 -0.34 2.04 0 0 Z " fill="#FD0F0F" transform="translate(336,802)"/>
<path d="M0 0 C-0.99 0.33 -1.98 0.66 -3 1 C-3 2.32 -3 3.64 -3 5 C-5.31 5 -7.62 5 -10 5 C-9.25 2.5625 -9.25 2.5625 -8 0 C-5.08814875 -1.35886391 -2.99887865 -0.96392528 0 0 Z " fill="#A80B10" transform="translate(277,571)"/>
<path d="M0 0 C0.66 0.66 1.32 1.32 2 2 C-0.97 4.97 -3.94 7.94 -7 11 C-7.66 10.67 -8.32 10.34 -9 10 C-6.03 6.7 -3.06 3.4 0 0 Z " fill="#CB0C12" transform="translate(215,575)"/>
<path d="M0 0 C2.64 0 5.28 0 8 0 C7 3 7 3 5 4 C3.00039988 4.039992 0.99952758 4.04346799 -1 4 C-0.67 2.68 -0.34 1.36 0 0 Z " fill="#E60C11" transform="translate(248,571)"/>
<path d="M0 0 C0.33 0 0.66 0 1 0 C1.05399736 1.45792884 1.09279177 2.91642712 1.125 4.375 C1.14820313 5.18710937 1.17140625 5.99921875 1.1953125 6.8359375 C1 9 1 9 -1 11 C-1.69748583 12.31747324 -2.36959957 13.64914193 -3 15 C-4.28497537 11.14507389 -3.4052209 9.59653164 -2.0625 5.8125 C-1.68222656 4.72582031 -1.30195312 3.63914062 -0.91015625 2.51953125 C-0.60980469 1.68808594 -0.30945313 0.85664062 0 0 Z " fill="#FE0B0A" transform="translate(579,768)"/>
<path d="M0 0 C0.33 0 0.66 0 1 0 C1 2.64 1 5.28 1 8 C0.34 8 -0.32 8 -1 8 C-1.66 9.98 -2.32 11.96 -3 14 C-3.66 13.67 -4.32 13.34 -5 13 C-3.35 8.71 -1.7 4.42 0 0 Z " fill="#FE1111" transform="translate(812,815)"/>
<path d="M0 0 C0.99 0.33 1.98 0.66 3 1 C2.236875 1.515625 1.47375 2.03125 0.6875 2.5625 C-2.61575607 5.55847644 -3.48625726 7.85712514 -5 12 C-5.33 12 -5.66 12 -6 12 C-5.73781251 7.5428126 -5.42288711 5.48477302 -2.4375 2.0625 C-1.633125 1.381875 -0.82875 0.70125 0 0 Z " fill="#FE0D0E" transform="translate(772,783)"/>
<path d="M0 0 C1.72274487 2.58411731 2.68895522 4.54902656 3.6875 7.4375 C3.95949219 8.19933594 4.23148438 8.96117187 4.51171875 9.74609375 C5.04729142 12.21829721 4.80445309 13.62983284 4 16 C1.18150494 10.45108785 -0.5326514 6.258654 0 0 Z " fill="#FE0908" transform="translate(511,769)"/>
<path d="M0 0 C1.07310858 3.27185553 0.89263102 5.42947592 0.0625 8.75 C-0.22947266 9.94882812 -0.22947266 9.94882812 -0.52734375 11.171875 C-0.68332031 11.77515625 -0.83929688 12.3784375 -1 13 C-3.1642235 9.75366476 -3.37569856 8.75698557 -3 5 C-2.34 4.01 -1.68 3.02 -1 2 C-0.67 1.34 -0.34 0.68 0 0 Z " fill="#FE1010" transform="translate(379,805)"/>
<path d="M0 0 C0.33 0.66 0.66 1.32 1 2 C0.38125 2.721875 -0.2375 3.44375 -0.875 4.1875 C-2.83666353 6.78381938 -3.95316 8.94671666 -5 12 C-5.75 10.375 -5.75 10.375 -6 8 C-4.24107963 4.96737867 -2.47809712 2.47809712 0 0 Z " fill="#FE0C0C" transform="translate(259,784)"/>
<path d="M0 0 C0 3.65351863 -0.88942301 5.06026776 -3 8 C-5.1875 9.3125 -5.1875 9.3125 -7 10 C-5.33248852 6.05860922 -2.77289351 3.2107188 0 0 Z " fill="#3A1315" transform="translate(161,633)"/>
<path d="M0 0 C0.66 0 1.32 0 2 0 C2 1.32 2 2.64 2 4 C2.66 4.33 3.32 4.66 4 5 C2.68 6.32 1.36 7.64 0 9 C0 6.03 0 3.06 0 0 Z " fill="#FD0F10" transform="translate(764,768)"/>
<path d="M0 0 C0.66 0 1.32 0 2 0 C0.44499019 3.81684226 -2.03595495 6.19195732 -5 9 C-5.66 8.67 -6.32 8.34 -7 8 C-5.88200014 6.66079162 -4.75538103 5.32877444 -3.625 4 C-2.68527344 2.88625 -2.68527344 2.88625 -1.7265625 1.75 C-1.15679687 1.1725 -0.58703125 0.595 0 0 Z " fill="#9A0D10" transform="translate(191,606)"/>
<path d="M0 0 C0.99 0 1.98 0 3 0 C3 1.98 3 3.96 3 6 C1.68 5.34 0.36 4.68 -1 4 C-0.67 2.68 -0.34 1.36 0 0 Z " fill="#571011" transform="translate(286,570)"/>
</svg>
